<?xml version="1.0" standalone="no"?>
<!DOCTYPE svg PUBLIC "-//W3C//DTD SVG 1.1//EN" "http://www.w3.org/Graphics/SVG/1.1/DTD/svg11.dtd" >
<svg xmlns="http://www.w3.org/2000/svg" xmlns:xlink="http://www.w3.org/1999/xlink" version="1.1">
<metadata></metadata>
<defs>
<font id="questa_slabbold" horiz-adv-x="1105" >
<font-face units-per-em="2048" ascent="1536" descent="-512" />
<missing-glyph horiz-adv-x="425" />
<glyph unicode="&#xfb01;" horiz-adv-x="1267" d="M57 754v196h154v117q0 201 116.5 316.5t325.5 115.5q55 0 103.5 -7.5t82 -20t61.5 -27t45 -29.5t29 -27.5t16 -19.5l5 -8l-159 -180q-29 53 -69.5 80.5t-107.5 27.5q-192 0 -192 -252v-86h627v-753h125v-197h-500v197h119v557h-371v-557h117v-197h-498v197h125v557h-154z " />
<glyph unicode="&#xfb02;" horiz-adv-x="1318" d="M57 754v196h154v97q0 204 124.5 328t348.5 124q144 0 236 -49h225v-1253h125v-197h-506v197h125v1034q-31 21 -46.5 30t-56 18t-98.5 9q-107 0 -164 -74t-57 -198v-66h244v-196h-244v-557h143v-197h-524v197h125v557h-154z" />
<glyph unicode="&#xfb03;" horiz-adv-x="1923" d="M57 754v196h154v86q0 202 102.5 317t292.5 115q57 0 105.5 -10t77 -24.5t48.5 -29t27 -24.5l8 -10l-145 -172q-40 59 -121 59q-139 0 -139 -241v-66h399v117q0 201 117 316.5t326 115.5q55 0 103.5 -7.5t82 -20t61.5 -27t45 -29.5t29 -27.5t16 -19.5l5 -8l-160 -180 q-29 53 -69 80.5t-107 27.5q-97 0 -145 -65t-48 -187v-86h627v-753h125v-197h-500v197h119v557h-371v-557h117v-197h-498v197h125v557h-399v-557h143v-197h-524v197h125v557h-154z" />
<glyph unicode="&#xfb04;" horiz-adv-x="2035" d="M57 754v196h154v86q0 202 102.5 317t292.5 115q57 0 105.5 -10t77 -24.5t48.5 -29t27 -24.5l8 -10l-145 -172q-40 59 -121 59q-139 0 -139 -241v-66h399v97q0 204 124.5 328t348.5 124q144 0 236 -49h225v-1253h125v-197h-506v197h125v1034q-31 21 -46.5 30t-56 18 t-98.5 9q-107 0 -164 -74t-57 -198v-66h244v-196h-244v-557h144v-197h-525v197h125v557h-399v-557h143v-197h-524v197h125v557h-154z" />
<glyph horiz-adv-x="0" />
<glyph horiz-adv-x="682" />
<glyph unicode=" "  horiz-adv-x="425" />
<glyph unicode="&#x09;" horiz-adv-x="425" />
<glyph unicode="&#xa0;" horiz-adv-x="425" />
<glyph unicode="!" horiz-adv-x="589" d="M121 143q0 72 50 123t122 51t123 -51t51 -123t-51 -122t-123 -50t-122 50t-50 122zM152 1354h288q-13 -231 -30 -914h-228q-3 97 -8.5 291.5t-10.5 342.5t-11 280z" />
<glyph unicode="&#x22;" horiz-adv-x="813" d="M98 1481h248q0 -47 -5.5 -187t-10.5 -256l-6 -116h-201q-25 453 -25 559zM467 1481h248q0 -47 -5.5 -187t-11.5 -256l-6 -116h-200q-25 453 -25 559z" />
<glyph unicode="#" horiz-adv-x="1363" d="M59 293l39 168h252l49 221h-272l39 168h268l92 420h179l-93 -420h254l92 420h179l-93 -420h261l-39 -168h-256l-47 -221h274l-39 -168h-272l-88 -416h-181l91 416h-254l-88 -416h-181l90 416h-256zM530 461h252l49 221h-253z" />
<glyph unicode="$" d="M102 274q0 16 4 52l220 45q-2 -10 -2 -31q0 -72 50 -113t132 -51v273q-47 16 -76.5 27t-73.5 30.5t-72 38t-60.5 47t-51 59t-31 72.5t-12.5 90q0 144 101 233t276 101v158h110v-158q164 -12 266.5 -87.5t102.5 -187.5q0 -19 -4 -47l-240 -49q2 8 2 33q0 111 -127 131 v-266q156 -53 220 -89q164 -95 165 -263q0 -140 -99.5 -237.5t-285.5 -111.5v-157h-110v157q-77 4 -145.5 22.5t-128 53t-95 92.5t-35.5 133zM381 844q0 -79 125 -131v231q-125 -13 -125 -100zM616 178q60 8 97 35.5t37 71.5q0 41 -34.5 71t-99.5 56v-234z" />
<glyph unicode="%" horiz-adv-x="1673" d="M59 1038q0 142 100.5 242t243.5 100t244 -100t101 -242t-101 -242t-244 -100t-243.5 100t-100.5 242zM233 1038q0 -74 50 -128t120 -54t120 54t50 128t-50 128.5t-120 54.5t-120 -54.5t-50 -128.5zM322 0l845 1354h191l-846 -1354h-190zM926 313q0 142 100.5 242 t243.5 100t243.5 -100t100.5 -242t-100.5 -242t-243.5 -100t-243.5 100t-100.5 242zM1100 313q0 -74 50 -128t120 -54t120 54t50 128t-50 128.5t-120 54.5t-120 -54.5t-50 -128.5z" />
<glyph unicode="&#x26;" horiz-adv-x="1478" d="M82 371q0 240 244 385q-97 149 -97 274q0 152 105 252t293 100q163 0 280 -74t117 -194q0 -15 -4 -47l-256 -39q2 12 2 35q0 64 -38.5 93.5t-96.5 29.5q-68 0 -101.5 -39.5t-33.5 -102.5q0 -69 38.5 -135.5t137.5 -193.5l241 -312q56 109 64 277h-150v174h539v-174h-172 q-14 -280 -143 -449q28 -29 53.5 -42t62.5 -13q35 0 66 11t50 27t32.5 32.5t19.5 27.5l6 11l89 -176q-3 -6 -9 -15t-30 -33t-53 -42t-80.5 -33t-110.5 -15q-159 0 -275 92q-128 -92 -327 -92q-211 0 -337 108t-126 292zM344 393q0 -90 59.5 -151.5t169.5 -61.5q93 0 160 43 l-280 363q-109 -73 -109 -193z" />
<glyph unicode="'" horiz-adv-x="444" d="M98 1481h248q0 -47 -5.5 -187t-10.5 -256l-6 -116h-201q-25 453 -25 559z" />
<glyph unicode="(" horiz-adv-x="681" d="M72 504q0 132 23.5 258.5t61.5 222.5t83.5 181t91 144t83.5 101.5t61 62.5l24 21l162 -158q-6 -5 -16.5 -14t-41.5 -41.5t-60 -71t-67 -102t-69 -133.5q-44 -101 -59 -201t-15 -270q0 -168 15.5 -269t58.5 -202q31 -70 68 -133t68.5 -103.5t59 -70.5t42.5 -43l16 -13 l-162 -157q-9 7 -24.5 21t-60 62t-85 102.5t-89.5 143t-84.5 182.5t-60 221t-24.5 259z" />
<glyph unicode=")" horiz-adv-x="681" d="M20 -330l8 7q7 7 22 21.5t34 35.5t43 51.5t48 66t50 83t49 98.5q43 101 58.5 202t15.5 269q0 166 -15.5 267.5t-58.5 203.5q-17 40 -37.5 78t-39 68.5t-38.5 58.5t-37 49t-33.5 39t-29 30.5l-21.5 21.5t-14 13t-4 4l162 158q9 -7 24.5 -21t60 -62t85 -102.5t89.5 -143 t84.5 -182.5t60 -221t24.5 -259t-23.5 -258.5t-61.5 -222.5t-83.5 -181t-91 -144t-83.5 -101.5t-61 -62.5l-24 -21z" />
<glyph unicode="*" horiz-adv-x="1142" d="M68 1034l75 236q64 -21 152 -71.5t145 -90.5l56 -41l-25 -76q-276 0 -403 43zM184 678q39 54 114.5 122t131.5 109l55 41l66 -47q-9 -28 -24.5 -73t-59 -145t-82.5 -153zM446 1491h248q0 -67 -21 -166t-42 -165l-21 -66h-80q-9 28 -23 73t-37.5 151t-23.5 173zM594 903 l65 49q24 -17 62.5 -45.5t120 -100.5t119.5 -126l-201 -148q-39 55 -80.5 147.5t-63.5 158.5zM645 1069q24 18 63 45.5t132.5 82.5t156.5 75l78 -236q-129 -43 -403 -43z" />
<glyph unicode="+" d="M94 406v180h367v399h188v-399h363v-180h-363v-406h-188v406h-367z" />
<glyph unicode="," horiz-adv-x="516" d="M57 156l193 157q74 -28 132 -99t58 -175q0 -66 -21 -127.5t-61 -113.5t-79 -90.5t-93 -82.5l-108 119q131 105 131 207q0 25 -6.5 46t-14 36t-32 38t-40.5 36.5t-59 48.5z" />
<glyph unicode="-" horiz-adv-x="737" d="M111 371v221h516v-221h-516z" />
<glyph unicode="." horiz-adv-x="509" d="M82 143q0 72 50 123t122 51t123 -51t51 -123t-51 -122t-123 -50t-122 50t-50 122z" />
<glyph unicode="/" horiz-adv-x="1019" d="M45 -467l682 1937h248l-680 -1937h-250z" />
<glyph unicode="0" horiz-adv-x="1148" d="M92 512q0 250 131.5 390t354.5 140q225 0 353 -141.5t128 -380.5q0 -242 -133 -395.5t-359 -153.5q-218 0 -346.5 144.5t-128.5 396.5zM352 508q0 -89 21.5 -160.5t73.5 -119.5t128 -48q109 0 166.5 92.5t57.5 239.5q0 146 -57 234t-164 88q-59 0 -103.5 -27t-70.5 -74 t-39 -103.5t-13 -121.5z" />
<glyph unicode="1" horiz-adv-x="944" d="M92 977l545 49v-817h258v-209h-784v209h264v584l-264 -25z" />
<glyph unicode="2" horiz-adv-x="1060" d="M90 0v174q252 181 320 236q173 140 208 242q11 33 11 63q0 65 -33 98t-94 33q-70 0 -107 -43t-37 -123q0 -4 1 -13.5t1 -13.5l-256 54v16q0 154 107 236.5t295 82.5q116 0 203.5 -31t142.5 -102.5t55 -177.5q0 -45 -15.5 -90.5t-39 -84.5t-61 -81t-72 -74t-82 -69.5 t-81 -61.5t-78.5 -56q-4 -3 -7 -5l-6 -4h293v147h207v-352h-875z" />
<glyph unicode="3" horiz-adv-x="1013" d="M68 -47l247 61q0 -161 154 -161q94 0 139 51t45 139q0 215 -301 215h-47v211h47q130 0 198 56.5t68 164.5q0 76 -33.5 116t-111.5 40q-70 0 -102.5 -37t-32.5 -123l-256 53q5 144 105 223.5t294 79.5q89 0 160.5 -17.5t129 -54.5t89 -103t31.5 -156q0 -132 -66.5 -218 t-177.5 -120q279 -50 279 -326q0 -188 -121.5 -289.5t-327.5 -101.5q-115 0 -205 30.5t-147 99t-57 167.5z" />
<glyph unicode="4" horiz-adv-x="1132" d="M57 39v194l596 781h197v-766h225v-209h-225v-356h-246v356h-547zM317 248h287v377z" />
<glyph unicode="5" horiz-adv-x="1001" d="M78 -49l248 63q0 -73 37.5 -117t109.5 -44q76 0 121 55.5t45 154.5q0 230 -277 230h-241l31 721h716v-352h-206v143h-269l-12 -303h57q101 0 184 -22.5t149.5 -69t103 -127t36.5 -189.5q0 -212 -123 -325t-319 -113q-170 0 -280.5 81t-110.5 214z" />
<glyph unicode="6" horiz-adv-x="1116" d="M100 629q0 359 132 556t393 197q172 0 269 -78.5t97 -203.5l-248 -60q0 146 -129 146q-61 0 -105.5 -31t-72 -91t-43 -136.5t-20.5 -177.5q79 120 252 120q81 0 151 -26t125.5 -77.5t87 -137.5t31.5 -197q0 -95 -25 -172.5t-68 -130.5t-102 -89t-126 -52.5t-142 -16.5 q-222 0 -339.5 158t-117.5 500zM375 446q12 -143 57 -210.5t135 -67.5q174 0 174 258q0 119 -39 179.5t-127 60.5q-50 0 -89 -20t-62 -53t-35 -70t-14 -77z" />
<glyph unicode="7" horiz-adv-x="964" d="M59 596v418h867v-195q-147 -280 -243.5 -555t-141.5 -581h-277q44 257 135.5 552.5t227.5 561.5h-351v-201h-217z" />
<glyph unicode="8" horiz-adv-x="1083" d="M92 324q0 66 18.5 121.5t55 99.5t77 77.5t97.5 69.5q-199 146 -199 342q0 155 110 251.5t302 96.5q190 0 291.5 -93t101.5 -234q0 -175 -176 -324q49 -33 85 -65t67.5 -75.5t48 -98t16.5 -119.5q0 -183 -121 -292.5t-331 -109.5q-87 0 -164 20t-140.5 60.5t-101 110.5 t-37.5 162zM338 348q0 -84 53 -132t146 -48q89 0 138.5 45.5t49.5 128.5q0 35 -11 65.5t-25.5 51.5t-45 45t-54.5 39t-69 41q-64 -41 -97 -67.5t-59 -70.5t-26 -98zM403 1049q0 -61 45.5 -107t143.5 -104q56 44 83 90t27 108q0 77 -41 113.5t-106 36.5q-73 0 -112.5 -39 t-39.5 -98z" />
<glyph unicode="9" horiz-adv-x="1095" d="M84 573q0 103 27 184.5t71 134t104.5 87t124.5 49t134 14.5q224 0 341.5 -161t117.5 -512q0 -713 -492 -713q-171 0 -284 81t-113 204l247 59q3 -147 164 -147q51 0 88.5 19t61 52t38 85t20.5 109.5t7 135.5q-90 -111 -254 -111q-81 0 -151.5 25t-128 75.5t-90.5 135 t-33 194.5zM362 573q0 -110 36 -167.5t116 -57.5q96 0 152 63t63 146q-15 146 -61.5 217.5t-132.5 71.5q-173 0 -173 -273z" />
<glyph unicode=":" horiz-adv-x="559" d="M106 143q0 72 50.5 123t122.5 51t123 -51t51 -123t-51 -122t-123 -50t-122.5 50t-50.5 122zM106 797q0 72 50.5 123t122.5 51t123 -51t51 -123t-51 -122t-123 -50t-122.5 50t-50.5 122z" />
<glyph unicode=";" horiz-adv-x="569" d="M92 156l193 157q74 -28 132 -99t58 -175q0 -66 -21 -127.5t-61 -113.5t-79 -90.5t-93 -82.5l-108 119q131 105 131 207q0 25 -6.5 46t-14 36t-32 38t-40.5 36.5t-59 48.5zM106 797q0 72 50.5 123t122.5 51t123 -51t51 -123t-51 -122t-123 -50t-122.5 50t-50.5 122z" />
<glyph unicode="&#x3c;" d="M74 418v166l858 452l74 -164l-725 -372l727 -391l-74 -164z" />
<glyph unicode="=" d="M94 193v180h918v-180h-918zM94 618v181h918v-181h-918z" />
<glyph unicode="&#x3e;" d="M98 109l727 391l-725 372l74 164l858 -452v-166l-860 -473z" />
<glyph unicode="?" horiz-adv-x="1013" d="M57 1067q0 156 122 235.5t329 79.5q213 0 329.5 -85t116.5 -234q0 -59 -19.5 -108t-50.5 -84t-68.5 -66.5t-75 -64t-68.5 -68.5t-50.5 -87t-19.5 -112q0 -23 2 -33h-252q-4 25 -4 70q0 69 17.5 127t46 97.5t62.5 73t68 61t62.5 54.5t46 60.5t17.5 71.5q0 23 -6.5 43.5 t-22.5 41.5t-51 33.5t-86 12.5q-89 0 -136 -43t-47 -142q0 -24 3 -51l-256 35q-9 43 -9 82zM311 143q0 72 50 123t122 51t123 -51t51 -123t-51 -122t-123 -50t-122 50t-50 122z" />
<glyph unicode="@" horiz-adv-x="1748" d="M84 424q0 158 59.5 304.5t165 259t262.5 180t340 67.5q163 0 303.5 -54t237 -146.5t151 -218.5t54.5 -267q0 -137 -46.5 -261t-139 -206t-211.5 -82q-107 0 -150.5 56t-48.5 151h-8q-100 -209 -289 -209q-148 0 -237 117.5t-89 302.5q0 215 118 353t290 138 q127 0 211 -96l43 80h139v-629q0 -50 11.5 -74t39.5 -24q65 0 128 101t63 259q0 155 -66 278t-196.5 196t-305.5 73q-118 0 -222 -34t-182 -94.5t-134.5 -141.5t-85.5 -177t-29 -198q0 -123 42 -231.5t120.5 -192t202 -132t276.5 -48.5q85 0 180 14v-160q-101 -16 -204 -16 q-156 0 -287.5 43.5t-223.5 117t-156.5 171.5t-95 207t-30.5 223zM680 414q0 -115 27.5 -181.5t80.5 -66.5q52 0 104.5 58.5t86 149t33.5 179.5q0 90 -37 141t-105 51q-96 0 -143 -91.5t-47 -239.5z" />
<glyph unicode="A" horiz-adv-x="1406" d="M29 0v203h116l414 1151h275l440 -1151h117v-203h-531v203h131l-61 159h-463l-55 -159h131v-203h-514zM541 575h309l-160 447z" />
<glyph unicode="B" horiz-adv-x="1333" d="M92 0v203h162v948h-162v203h615q105 0 190.5 -18.5t153.5 -57.5t105.5 -106.5t37.5 -159.5q0 -107 -51 -184.5t-137 -112.5v-8q122 -34 186.5 -120.5t64.5 -199.5q0 -170 -136 -278.5t-396 -108.5h-633zM524 213h187q256 0 256 188q0 97 -63.5 141t-162.5 44h-217v-373z M524 799h211q86 0 126 41.5t40 124.5q0 95 -48.5 135.5t-158.5 40.5h-170v-342z" />
<glyph unicode="C" horiz-adv-x="1329" d="M84 688q0 328 169.5 511t477.5 183q243 0 384.5 -107t141.5 -280v-24l-270 -60q-5 120 -66.5 181t-193.5 61q-182 0 -265 -115t-83 -352q0 -242 87.5 -363.5t256.5 -121.5q54 0 103 12.5t92.5 38t71.5 71.5t34 107l252 -70q-17 -82 -58.5 -151t-107 -123t-163 -84.5 t-218.5 -30.5q-163 0 -288 54.5t-202 152.5t-116 226.5t-39 283.5z" />
<glyph unicode="D" horiz-adv-x="1495" d="M92 0v203h162v948h-162v203h668q162 0 287.5 -48.5t205 -136t120 -206.5t40.5 -263q0 -111 -24 -212t-75.5 -190.5t-126.5 -155.5t-184 -104t-241 -38h-670zM530 213h224q176 0 270 118t94 361q0 235 -95 342t-282 107h-211v-928z" />
<glyph unicode="E" horiz-adv-x="1251" d="M92 0v203h162v948h-162v203h1051v-391h-213v178h-400v-353h433v-213h-433v-362h412v199h213v-412h-1063z" />
<glyph unicode="F" horiz-adv-x="1161" d="M92 0v203h162v948h-162v203h1018v-391h-213v178h-367v-363h453v-213h-453v-362h185v-203h-623z" />
<glyph unicode="G" horiz-adv-x="1435" d="M86 674q0 334 168 521t481 187q130 0 234 -32.5t166 -86t94.5 -117.5t32.5 -132q0 -23 -2 -33l-271 -57q-6 229 -256 229q-87 0 -151.5 -27.5t-102 -70.5t-60.5 -107t-30.5 -126.5t-7.5 -139.5q0 -104 19 -189.5t58 -152t105 -103t154 -36.5q81 0 146.5 19t108 62.5 t42.5 106.5v90h-240v203h604v-203h-98v-479h-190l-33 115q-120 -144 -346 -144q-150 0 -269 51t-197 144.5t-118.5 222t-40.5 285.5z" />
<glyph unicode="H" horiz-adv-x="1691" d="M92 0v203h162v948h-162v203h600v-203h-162v-363h631v363h-162v203h600v-203h-161v-948h161v-203h-600v203h162v372h-631v-372h162v-203h-600z" />
<glyph unicode="I" horiz-adv-x="784" d="M92 0v203h162v948h-162v203h600v-203h-162v-948h162v-203h-600z" />
<glyph unicode="J" horiz-adv-x="761" d="M-78 -109q20 -4 55 -4q145 0 212 82.5t67 263.5v918h-162v203h600v-203h-162v-944q0 -263 -132.5 -413t-379.5 -150q-46 0 -98 6v241z" />
<glyph unicode="K" horiz-adv-x="1411" d="M92 0v203h162v948h-162v203h582v-203h-144v-352h88l306 352h-125v203h557v-203h-133l-375 -430l352 -518h162v-203h-363l-378 586h-91v-383h162v-203h-600z" />
<glyph unicode="L" horiz-adv-x="1181" d="M90 0v203h164v948h-164v203h604v-203h-164v-938h398v199h213v-412h-1051z" />
<glyph unicode="M" horiz-adv-x="1968" d="M90 0v203h164v948h-164v203h582l315 -938l316 938h575v-203h-164v-948h164v-203h-594v203h164v884l-375 -1087h-184l-369 1081v-878h164v-203h-594z" />
<glyph unicode="N" horiz-adv-x="1644" d="M92 0v203h162v948h-162v203h455l602 -946v743h-162v203h590v-203h-162v-1151h-280l-615 956v-753h162v-203h-590z" />
<glyph unicode="O" horiz-adv-x="1460" d="M84 680q0 212 73 368.5t220.5 245t355.5 88.5q303 0 473 -180.5t170 -505.5q0 -213 -73 -374.5t-222 -256t-358 -94.5q-156 0 -278.5 53t-200.5 148t-119 224t-41 284zM379 672q0 -241 91.5 -356t252.5 -115q173 0 265.5 119.5t92.5 365.5q0 239 -90.5 353t-257.5 114 q-171 0 -262.5 -117.5t-91.5 -363.5z" />
<glyph unicode="P" horiz-adv-x="1263" d="M92 0v203h162v948h-162v203h590q144 0 246.5 -31t164 -91.5t89.5 -143t28 -193.5q0 -203 -136 -319.5t-421 -116.5h-123v-256h172v-203h-610zM530 672h121q138 0 203.5 54t65.5 169q0 132 -59 189t-191 57h-140v-469z" />
<glyph unicode="Q" horiz-adv-x="1460" d="M84 680q0 322 169 512t482 190q302 0 471.5 -180.5t169.5 -505.5q0 -268 -117 -453.5t-337 -244.5q41 -41 74.5 -67t80 -50t104.5 -35.5t132 -11.5q71 0 129 16l-47 -223q-66 -14 -146 -14q-78 0 -147.5 18t-122.5 44.5t-110.5 72.5t-99.5 87t-100 101q-8 9 -12 13 l-26 28q-178 19 -303 115t-184.5 246t-59.5 342zM379 674q0 -243 91.5 -358t256.5 -115q169 0 261.5 119.5t92.5 363.5q0 240 -90.5 354.5t-257.5 114.5q-170 0 -262 -118t-92 -361z" />
<glyph unicode="R" horiz-adv-x="1343" d="M92 0v203h162v948h-162v203h160l2 -4v4h465q252 0 369.5 -99t117.5 -274q0 -257 -235 -358q101 -58 141 -203q3 -12 9.5 -39.5t11 -41.5t13.5 -37t20 -35.5t27.5 -26t40.5 -19.5t54 -6l-49 -227q-36 -4 -51 -4q-68 1 -122 24.5t-85 51t-59.5 83t-38 84t-27.5 90.5 q-3 9 -4 13q-18 63 -34 100t-40.5 64.5t-57.5 38t-83 10.5h-107v-340h162v-203h-600zM530 756h168q217 0 217 194q0 98 -51.5 144.5t-165.5 46.5h-168v-385z" />
<glyph unicode="S" horiz-adv-x="1171" d="M70 354v19l270 57q1 -119 72 -174t184 -55q98 0 156.5 38.5t58.5 106.5q0 42 -24 74.5t-65 55.5t-94 42.5t-111 40t-116.5 43.5t-111.5 57t-94 77t-65 106.5t-24 142.5q0 189 130.5 293t355.5 104q219 0 351 -96t132 -252v-16l-270 -57q-8 192 -219 192q-97 0 -148 -37.5 t-51 -103.5q0 -44 24 -79t65 -58.5t94 -44t111.5 -40t116.5 -41.5t111 -54.5t94 -73.5t65 -102.5t24 -137.5q0 -182 -130.5 -296t-369.5 -114q-125 0 -226 32.5t-164.5 87t-97.5 122t-34 141.5z" />
<glyph unicode="T" horiz-adv-x="1284" d="M43 963v391h1198v-391h-213v178h-248v-938h162v-203h-600v203h162v938h-248v-178h-213z" />
<glyph unicode="U" horiz-adv-x="1552" d="M39 1151v203h600v-203h-162v-623q0 -53 7 -96t26.5 -86.5t52 -72.5t87.5 -47.5t128 -18.5q307 0 307 325v619h-161v203h589v-203h-161v-619q0 -130 -33 -231t-101 -176t-180 -114.5t-264 -39.5q-287 0 -430 146.5t-143 410.5v623h-162z" />
<glyph unicode="V" horiz-adv-x="1394" d="M18 1151v203h557v-203h-151l283 -817l282 817h-155v203h534v-203h-115l-415 -1151h-275l-428 1151h-117z" />
<glyph unicode="W" horiz-adv-x="2084" d="M18 1151v203h557v-203h-153l258 -803l227 803h-133v203h512v-203h-137l270 -801l252 801h-151v203h534v-203h-115l-370 -1151h-275l-264 788l-227 -788h-275l-393 1151h-117z" />
<glyph unicode="X" horiz-adv-x="1370" d="M53 0v203h125l340 508l-315 440h-140v203h574v-203h-117l201 -283l182 283h-123v203h516v-203h-122l-316 -473l338 -475h129v-203h-561v203h115l-226 317l-204 -317h122v-203h-518z" />
<glyph unicode="Y" horiz-adv-x="1406" d="M25 1151v203h602v-203h-140l238 -387l225 387h-137v203h559v-203h-143l-383 -631v-317h162v-203h-600v203h161v321l-403 627h-141z" />
<glyph unicode="Z" horiz-adv-x="1236" d="M76 0v215l731 926h-500v-178h-213v391h1051v-215l-733 -926h530v178h213v-391h-1079z" />
<glyph unicode="[" horiz-adv-x="684" d="M164 -467v1937h469v-188h-232v-1561h232v-188h-469z" />
<glyph unicode="\" horiz-adv-x="1019" d="M45 1470h248l682 -1937h-250z" />
<glyph unicode="]" horiz-adv-x="684" d="M51 -279h232v1561h-232v188h469v-1937h-469v188z" />
<glyph unicode="^" horiz-adv-x="1167" d="M61 391l441 991h164l440 -991h-197l-327 729l-320 -729h-201z" />
<glyph unicode="_" horiz-adv-x="1224" d="M100 0h1024v-197h-1024v197z" />
<glyph unicode="`" horiz-adv-x="1024" d="M164 1454l186 123l264 -414l-133 -92z" />
<glyph unicode="a" horiz-adv-x="1036" d="M63 242q0 162 150 244.5t416 84.5v33q0 100 -30.5 140t-111.5 40q-78 0 -112.5 -34.5t-34.5 -116.5l-244 47q-2 12 -2 35q0 119 107.5 191.5t300.5 72.5q207 0 295 -86.5t88 -282.5v-295q0 -80 10 -101q15 -32 63 -32q11 0 39 4l-43 -190q-41 -8 -80 -8q-96 0 -146 42.5 t-66 104.5q-41 -69 -111 -116.5t-172 -47.5q-134 0 -225 71.5t-91 199.5zM332 260q0 -92 106 -92q71 0 128 42.5t63 111.5v79q-143 -2 -220 -34t-77 -107z" />
<glyph unicode="b" horiz-adv-x="1120" d="M-10 1274v196h399v-606q96 115 252 115q109 0 190.5 -40t128 -109.5t69 -153.5t22.5 -182q0 -110 -27 -204t-78.5 -165.5t-135 -112.5t-189.5 -41q-175 0 -271 152l-8 -123h-209v1274h-143zM389 475q0 -132 51 -219.5t148 -87.5q93 0 143.5 84t50.5 233q0 141 -47.5 219 t-140.5 78q-99 0 -152 -86t-53 -221z" />
<glyph unicode="c" horiz-adv-x="976" d="M72 477q0 110 24 196.5t65.5 143.5t101 94t126.5 52.5t146 15.5q170 0 278.5 -74.5t108.5 -208.5q0 -22 -2 -34l-256 -50v27q0 143 -127 143q-56 0 -96 -26.5t-61.5 -73.5t-30.5 -100t-9 -117q0 -297 188 -297q67 0 111 38t55 99l232 -47q-87 -287 -400 -287 q-225 0 -339.5 131.5t-114.5 374.5z" />
<glyph unicode="d" horiz-adv-x="1169" d="M70 475q0 228 114 366t322 138q160 0 233 -107v402h-143v196h399v-1273h125v-197h-336l-12 145q-48 -82 -117.5 -128t-177.5 -46q-91 0 -163 30t-117 79t-74.5 116t-41 135.5t-11.5 143.5zM338 471q0 -68 8.5 -119t28.5 -94.5t58 -66.5t93 -23q106 0 159.5 85.5 t53.5 240.5q0 288 -202 288q-103 0 -151 -76t-48 -235z" />
<glyph unicode="e" horiz-adv-x="1030" d="M70 475q0 79 14 149.5t49 136.5t87.5 113.5t134.5 76t186 28.5q205 0 311 -115t106 -340v-108h-618q7 -120 53 -184t156 -64q78 0 120 28t64 83l225 -48q-78 -260 -413 -260q-231 0 -353 125t-122 379zM344 596h346v16q0 170 -153 170q-87 0 -133 -41t-60 -145z" />
<glyph unicode="f" horiz-adv-x="751" d="M57 754v196h154v117q0 202 105.5 317t299.5 115q64 0 118 -11t86 -27t54 -32t30 -27l9 -11l-159 -181q-25 38 -56 58t-82 20q-149 0 -149 -252v-86h244v-196h-244v-557h143v-197h-524v197h125v557h-154z" />
<glyph unicode="g" horiz-adv-x="1054" d="M70 164q0 64 35 114.5t106 98.5q-109 86 -109 250q0 165 110.5 258.5t315.5 93.5q166 0 277 -66q22 43 22 121v103l207 -31q8 -49 8 -90q0 -141 -135 -207q43 -73 43 -174q0 -164 -113.5 -256t-316.5 -92q-96 0 -166 20q-69 -41 -69 -80q0 -25 32 -40t84.5 -20t119.5 -12 t136.5 -14t136.5 -28t119.5 -52t84.5 -88.5t32 -134.5q0 -71 -28 -128t-74.5 -95t-110.5 -63.5t-134 -36.5t-146 -11q-127 0 -229.5 26t-170 86t-67.5 146q0 127 159 228q-159 46 -159 174zM293 -197q0 -47 61.5 -77.5t182.5 -30.5q115 0 187.5 29.5t72.5 85.5 q0 47 -48 69.5t-145 36.5q-123 13 -190 18q-65 -39 -93 -68t-28 -63zM371 633q0 -170 153 -170q78 0 118 46t40 128q0 166 -156 166q-155 0 -155 -170z" />
<glyph unicode="h" horiz-adv-x="1202" d="M31 1274v196h399v-675q97 184 303 184q303 0 303 -330v-452h125v-197h-489v197h108v385q0 92 -28 135t-88 43q-43 0 -81 -21t-62 -51t-44.5 -69.5t-30 -69t-16.5 -57.5v-295h109v-197h-490v197h125v1077h-143z" />
<glyph unicode="i" horiz-adv-x="641" d="M57 754v196h410v-753h125v-197h-506v197h125v557h-154zM162 1280q0 66 47 113t113 47t112.5 -47t46.5 -113t-46.5 -113t-112.5 -47t-113 47t-47 113z" />
<glyph unicode="j" horiz-adv-x="577" d="M-63 -272q79 3 127.5 21t76.5 60t37.5 100.5t9.5 153.5v691h-153v196h409v-887q0 -61 -4.5 -113t-18.5 -111t-36.5 -105.5t-61.5 -91t-91 -74t-127 -47t-168 -17.5v224zM139 1280q0 66 47 113t113 47t113 -47t47 -113t-47 -113t-113 -47t-113 47t-47 113z" />
<glyph unicode="k" horiz-adv-x="1144" d="M31 1274v196h399v-870h72l147 154h-112v196h546v-196h-143l-223 -226l260 -331h127v-197h-305l-303 403h-66v-206h125v-197h-506v197h125v1077h-143z" />
<glyph unicode="l" horiz-adv-x="604" d="M31 1274v196h399v-1273h125v-197h-506v197h125v1077h-143z" />
<glyph unicode="m" horiz-adv-x="1845" d="M57 754v196h394v-186q10 25 23.5 49t40.5 55.5t60 54.5t84.5 39.5t110.5 16.5q233 0 283 -225q8 22 20 45.5t39 57.5t60.5 59.5t87 44t116.5 18.5q303 0 303 -330v-452h125v-197h-489v197h108v385q0 92 -28 135t-88 43q-43 0 -81 -21t-62 -51t-44.5 -69.5t-30 -69 t-16.5 -57.5v-295h109v-197h-473v197h108v385q0 92 -28.5 135t-88.5 43q-43 0 -80.5 -21t-62 -51t-44.5 -69.5t-29.5 -69t-16.5 -57.5v-295h108v-197h-489v197h125v557h-154z" />
<glyph unicode="n" horiz-adv-x="1239" d="M57 754v196h394v-186q10 25 23.5 49t40.5 55.5t60 54.5t84.5 39.5t110.5 16.5q303 0 303 -330v-452h123v-197h-491v197h112v385q0 92 -28.5 135t-88.5 43q-43 0 -80.5 -21t-62 -51t-44.5 -69.5t-29.5 -69t-16.5 -57.5v-295h113v-197h-492v197h123v557h-154z" />
<glyph unicode="o" horiz-adv-x="1085" d="M70 475q0 110 25 198t79 158.5t147.5 109t221.5 38.5t221.5 -38t147.5 -108t79 -158.5t25 -199.5t-25 -199.5t-79 -158.5t-147.5 -108t-221.5 -38t-221.5 38.5t-147.5 109t-79 158.5t-25 198zM338 475q0 -307 205 -307t205 307t-205 307t-205 -307z" />
<glyph unicode="p" horiz-adv-x="1183" d="M35 754v196h391v-129q102 158 291 158q88 0 157.5 -28t113.5 -74.5t73 -110.5t41 -131.5t12 -142.5q0 -112 -27.5 -205.5t-82 -164.5t-142 -111t-200.5 -40q-135 0 -220 105v-346h123v-197h-502v197h123v1024h-151zM442 471q0 -303 203 -303q201 0 201 321 q0 293 -187 293q-113 0 -165 -84t-52 -227z" />
<glyph unicode="q" horiz-adv-x="1120" d="M68 465q0 232 114 373t316 141q188 0 264 -152l14 123h211v-1220h121v-197h-502v197h125v372q-41 -60 -100.5 -95.5t-153.5 -35.5q-85 0 -154.5 28.5t-116 76.5t-78.5 112.5t-46 133.5t-14 143zM336 471q0 -148 47.5 -225.5t136.5 -77.5q97 0 154 81.5t57 229.5 q0 150 -57.5 226.5t-149.5 76.5q-89 0 -138.5 -77.5t-49.5 -233.5z" />
<glyph unicode="r" horiz-adv-x="866" d="M57 754v196h394v-186q14 36 27.5 63t35.5 57t47 49.5t61.5 32.5t79.5 13q33 0 62.5 -8.5t48 -20.5t33 -24t20.5 -20l6 -9l-143 -203q-4 7 -11 17t-30 26.5t-47 16.5q-42 0 -79 -44t-58.5 -100t-36.5 -123v-290h123v-197h-504v197h125v557h-154z" />
<glyph unicode="s" horiz-adv-x="948" d="M57 231q0 17 2 27l242 39q-2 -6 -2 -16q0 -48 44.5 -80.5t125.5 -32.5q64 0 106.5 23t42.5 67q0 32 -29 54.5t-75.5 37t-103 29.5t-113 37.5t-103 54t-75.5 85.5t-29 126q0 135 99 216t288 81q105 0 189.5 -26.5t137 -81t52.5 -128.5q0 -13 -4 -41l-256 -45q2 8 2 25 q0 41 -31.5 70.5t-97.5 29.5q-119 0 -119 -88q0 -34 29.5 -57.5t76.5 -38t103.5 -29t113.5 -36t104 -51.5t76.5 -83t29.5 -125q0 -98 -55.5 -168t-147.5 -102.5t-211 -32.5q-112 0 -202.5 26.5t-150 87t-59.5 146.5z" />
<glyph unicode="t" horiz-adv-x="790" d="M25 754v196h157l11 269h241v-269h264v-196h-264v-459q0 -57 14.5 -83t49.5 -26t53.5 33t26.5 98l196 -77q-18 -62 -38 -103t-54 -80t-88 -58t-129 -19q-78 0 -135.5 26t-89.5 72t-47 100.5t-15 118.5v457h-153z" />
<glyph unicode="u" horiz-adv-x="1202" d="M43 754v196h379v-581q0 -92 28.5 -135.5t88.5 -43.5q43 0 80.5 21t62 51t44.5 70t29.5 68.5t16.5 56.5v297h-123v196h379v-753h123v-197h-354l-11 184q-12 -32 -33 -63.5t-57.5 -68t-95.5 -59t-131 -22.5q-303 0 -303 330v453h-123z" />
<glyph unicode="v" horiz-adv-x="1077" d="M29 754v196h469v-196h-103l156 -408l156 408h-101v196h441v-196h-93l-303 -754h-223l-305 754h-94z" />
<glyph unicode="w" horiz-adv-x="1656" d="M31 754v196h491v-196h-108l94 -285q22 -66 33 -152q19 105 34 152l158 481h199l153 -481q8 -25 20 -82.5t17 -75.5q6 62 35 156l94 287h-96v196h473v-196h-121l-276 -754h-223l-154 463l-33 110l-30 -110l-152 -463h-223l-266 754h-119z" />
<glyph unicode="x" horiz-adv-x="1028" d="M63 0v197h105l199 270l-203 287h-101v196h263l196 -276l203 276h252v-196h-125l-199 -265l211 -292h92v-197h-256l-200 283l-203 -283h-234z" />
<glyph unicode="y" horiz-adv-x="1132" d="M33 754v196h461v-196h-72l108 -267q35 -90 60 -194q21 87 57 194l90 267h-71v196h442v-196h-117l-284 -738l-33 -190q-9 -51 -24 -94.5t-42 -86.5t-63.5 -73.5t-90.5 -49t-120 -18.5q-50 0 -94.5 10.5t-72.5 26t-48.5 30.5t-29.5 25l-9 11l125 166q6 -7 16.5 -17.5 t42.5 -27.5t64 -17q98 0 121 172l18 131l-324 740h-110z" />
<glyph unicode="z" horiz-adv-x="950" d="M76 0v158l459 583h-252v-143h-207v352h788v-159l-456 -582h264v143h207v-352h-803z" />
<glyph unicode="{" horiz-adv-x="761" d="M16 412v198h43q114 0 165.5 50.5t51.5 125.5q0 83 -17 197.5t-17 181.5q0 53 7 94t28.5 82t57.5 68t97 44t143 17h132v-198h-80q-140 0 -140 -123q0 -60 15.5 -154.5t15.5 -169.5q0 -119 -40 -206t-124 -109q82 -21 123 -99t41 -184q0 -84 -13 -187.5t-13 -156.5 q0 -76 31 -113.5t104 -37.5h80v-199h-132q-81 0 -141.5 16.5t-96.5 43t-58 66.5t-29.5 81t-7.5 92q0 72 17 198t17 214q0 71 -52 119.5t-163 48.5h-45z" />
<glyph unicode="|" horiz-adv-x="544" d="M164 -467v1937h217v-1937h-217z" />
<glyph unicode="}" horiz-adv-x="761" d="M55 -268h80q73 0 104 37.5t31 113.5q0 53 -13 154t-13 182q0 71 15.5 129.5t53.5 103t95 58.5q-82 22 -123 107t-41 200q0 79 15 175.5t15 156.5q0 123 -139 123h-80v198h131q82 0 143 -17t97 -44t57.5 -68t29 -82.5t7.5 -93.5q0 -67 -17.5 -181.5t-17.5 -197.5 q0 -75 51.5 -125.5t165.5 -50.5h43v-198h-45q-111 0 -163 -48.5t-52 -119.5q0 -88 17.5 -214t17.5 -198q0 -51 -7.5 -92t-29.5 -81t-58.5 -66.5t-97 -43t-141.5 -16.5h-131v199z" />
<glyph unicode="~" horiz-adv-x="1243" d="M102 477q66 67 150 112.5t174 45.5q59 0 118.5 -22.5t99.5 -49t88 -49t87 -22.5q104 0 215 118l107 -145q-64 -67 -147.5 -112.5t-174.5 -45.5q-59 0 -119 22.5t-100 49.5t-88 49.5t-86 22.5q-102 0 -213 -115z" />
<glyph unicode="&#xa1;" horiz-adv-x="565" d="M111 799q0 72 51 122t123 50t122 -50t50 -122t-50 -123t-122 -51t-123 51t-51 123zM137 -412q14 266 31 914h227q25 -798 31 -914h-289z" />
<glyph unicode="&#xa2;" d="M100 496q0 128 31.5 224.5t89 155.5t129.5 91t162 41v159h111v-157q177 -6 276.5 -84t99.5 -221l-251 -48q0 73 -31.5 107.5t-93.5 40.5v-627q43 6 75 22t47 35.5t24 38t10 30.5l1 13l224 -32q0 -6 -2 -16.5t-11 -40.5t-23.5 -58t-44 -63t-67.5 -61.5t-99 -47t-134 -25.5 v-157h-111v157q-201 19 -306.5 155t-105.5 368zM373 492q0 -263 139 -308v611q-77 -24 -108 -102.5t-31 -200.5z" />
<glyph unicode="&#xa3;" d="M53 164q22 9 58.5 18.5t57 17.5t44.5 26t37 53t18 88l13 106h-185v127h199l14 133q9 83 23 143t42 114.5t69.5 88t106 53t150.5 19.5q153 0 237.5 -60.5t84.5 -164.5q0 -30 -6 -60l-256 -43q0 5 1 14.5t1 14.5q0 94 -72 94q-108 0 -127 -213l-12 -133h274v-127h-286 l-7 -70q-8 -102 -63 -198q18 -3 51.5 -9.5t54 -10t50 -6.5t55.5 -3q69 0 104 23t35 75q0 11 -4 39l234 -51q4 -32 4 -47q0 -115 -83 -179.5t-225 -64.5q-96 0 -231 28t-207 28q-100 0 -223 -37z" />
<glyph unicode="&#xa5;" d="M14 1128h308l251 -362l226 362h293l-349 -516h258v-123h-305v-155h305v-123h-305v-211h-262v211h-305v123h305v155h-305v123h248z" />
<glyph unicode="&#xa6;" horiz-adv-x="540" d="M162 383h217v-850h-217v850zM162 596v874h217v-874h-217z" />
<glyph unicode="&#xa7;" horiz-adv-x="1026" d="M59 -334l125 137q57 -65 124.5 -98t162.5 -33q129 0 193.5 77t64.5 208q0 15 -1.5 30.5t-3 27t-5.5 30.5t-6 27.5t-8.5 33t-8.5 33.5l-145 547q-4 13 -13.5 46t-13 47l-10.5 42t-10 46t-5.5 41.5t-2.5 45.5q0 20 4 56h182q0 -46 10 -103.5t17.5 -86.5t29.5 -109l144 -545 q32 -125 32 -225q0 -204 -125 -320.5t-339 -116.5q-134 0 -223.5 37.5t-168.5 124.5zM90 940q0 63 13.5 122.5t47 118.5t83.5 103t130.5 71t180.5 27q60 0 108 -6t102.5 -22.5t104 -51.5t90.5 -88l-159 -170q-35 62 -96.5 98t-133.5 36q-213 0 -213 -226q0 -116 49 -286 l125 -465q4 -14 18 -63.5t18.5 -68.5t13 -55.5t11.5 -63t3 -52.5q0 -39 -4 -62h-244q-1 33 -9 74t-16 71.5t-26.5 95t-28.5 101.5l-123 463q-47 175 -45 299z" />
<glyph unicode="&#xa8;" horiz-adv-x="1024" d="M223 1282q0 60 44.5 104t103.5 44q61 0 105 -44t44 -104q0 -61 -43.5 -104t-105.5 -43q-59 0 -103.5 43t-44.5 104zM666 1282q0 60 44 104t105 44q59 0 103.5 -44t44.5 -104q0 -61 -44.5 -104t-103.5 -43q-62 0 -105.5 43t-43.5 104z" />
<glyph unicode="&#xa9;" horiz-adv-x="1853" d="M84 582q0 176 67 331.5t181.5 265t270.5 173t329 63.5q172 0 326.5 -64t266.5 -174t178 -265t66 -330q0 -173 -67 -327t-181 -263.5t-271 -173.5t-330 -64q-175 0 -330.5 64t-266 174t-175 263.5t-64.5 326.5zM266 582q0 -180 88 -334t240.5 -245t331.5 -91t330.5 91 t239 244.5t87.5 332.5q0 133 -51.5 257t-139 216t-209.5 147t-257 55q-134 0 -256.5 -55t-210.5 -146.5t-140.5 -215.5t-52.5 -256zM483 586q0 111 24 198t65.5 143t100.5 92t124.5 51t142.5 15q177 0 282 -73.5t105 -208.5q0 -6 -1 -17.5t-1 -17.5l-244 -49v24 q0 146 -141 146q-51 0 -89 -25.5t-59 -70.5t-30.5 -97.5t-9.5 -113.5q0 -145 50.5 -221t127.5 -76t123.5 34t56.5 117l227 -47q-26 -139 -130.5 -220t-278.5 -81q-214 0 -329.5 132t-115.5 366z" />
<glyph unicode="&#xaa;" horiz-adv-x="821" d="M82 877q0 107 107.5 164.5t299.5 62.5v22q0 66 -22 94.5t-76 28.5q-49 0 -74.5 -18.5t-25.5 -67.5v-14l-187 33v12q0 89 72.5 138.5t224.5 49.5q146 0 209.5 -56.5t63.5 -182.5v-219v-26.5t2.5 -20.5t7 -18.5t14 -9.5t23.5 -5q5 0 29 4l-25 -141q-50 -5 -57 -5 q-127 0 -154 84q-27 -35 -79 -62.5t-120 -27.5q-105 0 -169 46t-64 135zM276 893q0 -30 20 -47t56 -17q43 0 81.5 23.5t55.5 60.5v76q-103 -3 -158 -25t-55 -71z" />
<glyph unicode="&#xab;" horiz-adv-x="1079" d="M68 483q0 104 94 231.5t225 235.5l141 -157q-112 -110 -150 -176.5t-38 -139.5t40 -140.5t148 -176.5l-141 -158q-67 58 -116.5 107.5t-99.5 112.5t-76.5 129.5t-26.5 131.5zM549 483q0 104 94 231.5t225 235.5l142 -157q-112 -111 -150.5 -177t-38.5 -139t40.5 -140 t148.5 -177l-142 -158q-67 58 -116.5 107.5t-99.5 112.5t-76.5 129.5t-26.5 131.5z" />
<glyph unicode="&#xac;" d="M27 770v180h995v-628h-188v448h-807z" />
<glyph unicode="&#xad;" horiz-adv-x="737" d="M111 371v221h516v-221h-516z" />
<glyph unicode="&#xae;" horiz-adv-x="1026" d="M80 1057q0 179 119.5 301.5t312.5 122.5q194 0 314 -122.5t120 -301.5t-120 -300.5t-314 -121.5t-313 121.5t-119 300.5zM188 1057q0 -142 86.5 -228t237.5 -86q152 0 239 86t87 228t-87 228.5t-239 86.5q-151 0 -237.5 -86.5t-86.5 -228.5zM332 834v446h192 q86 0 131 -39t45 -104q0 -91 -90 -129q17 -7 28 -22t16 -27.5t21 -22.5t44 -10l-27 -103h-22q-40 0 -67 14.5t-36.5 28.5t-17.5 33q-1 4 -2 6q-2 5 -7 16t-6.5 15t-5.5 11.5t-6 10l-6 7.5t-7 6.5l-8 4t-11 3t-13 0.5h-22v-145h-123zM455 1083h67q26 0 42 15t16 37 q0 20 -16 33.5t-42 13.5h-67v-99z" />
<glyph unicode="&#xaf;" horiz-adv-x="1024" d="M258 1169v181h590v-181h-590z" />
<glyph unicode="&#xb0;" horiz-adv-x="761" d="M63 1178q0 129 92.5 220t225.5 91t225 -91t92 -220t-94 -220.5t-227 -91.5t-223.5 91t-90.5 221zM248 1178q0 -56 39 -95t94 -39t94 39t39 95t-39 94.5t-94 38.5t-94 -38.5t-39 -94.5z" />
<glyph unicode="&#xb1;" d="M94 0v180h918v-180h-918zM94 612v181h367v350h188v-350h363v-181h-363v-348h-188v348h-367z" />
<glyph unicode="&#xb2;" horiz-adv-x="864" d="M96 1354v16q0 130 76.5 196t243.5 66q147 0 228 -59t81 -178q0 -56 -12.5 -101t-44 -88.5t-61 -74.5t-87.5 -84l-98 -91h192v99h160v-283h-676v154q111 87 193 159q113 99 157 165t44 122q0 47 -23 72.5t-68 25.5t-66.5 -24.5t-21.5 -87.5q0 -29 2 -43z" />
<glyph unicode="&#xb3;" horiz-adv-x="815" d="M78 961v14l217 37q-2 -6 -2 -19q0 -80 104 -80q58 0 84.5 29t26.5 74q0 98 -180 98h-31v160h31q149 0 149 100q0 42 -19.5 69t-60.5 27q-92 0 -92 -81v-15l-219 35q0 103 80.5 163t228.5 60q144 0 230 -56.5t86 -174.5q0 -81 -44.5 -134t-113.5 -67q85 -10 137.5 -58.5 t52.5 -144.5q0 -110 -90.5 -177.5t-261.5 -67.5q-142 0 -227.5 53.5t-85.5 155.5z" />
<glyph unicode="&#xb4;" horiz-adv-x="1024" d="M432 1163l264 414l187 -123l-318 -383z" />
<glyph unicode="&#xb5;" horiz-adv-x="1290" d="M90 754v196h379v-581q0 -92 28.5 -135.5t88.5 -43.5q43 0 80.5 21t62 51t44.5 70t29.5 68.5t16.5 56.5v297h-123v196h379v-753h123v-197h-354l-10 184q-12 -32 -33 -63.5t-58 -68t-96 -59t-131 -22.5q-39 0 -96 11q0 -279 39 -478h-246v1250h-123z" />
<glyph unicode="&#xb6;" horiz-adv-x="1476" d="M57 803q0 121 44.5 224t122.5 174.5t186 112t233 40.5h746v-203h-162v-1618h-258v1675h-148v-1675h-170v733h-37q-240 0 -398.5 149t-158.5 388z" />
<glyph unicode="&#xb7;" horiz-adv-x="526" d="M90 473q0 72 50 123t122 51t123 -51t51 -123t-51 -122t-123 -50t-122 50t-50 122z" />
<glyph unicode="&#xb8;" horiz-adv-x="1024" d="M307 -444l62 127q16 -15 56.5 -28t78.5 -13q45 0 70.5 18.5t25.5 52.5q0 82 -186 82l57 215h137l-28 -119q18 -2 37 -6t44.5 -12t47 -22.5t41 -34t30.5 -49.5t11 -66q0 -67 -40.5 -113t-102 -65t-140.5 -19q-47 0 -87.5 8.5t-61.5 18t-52 25.5z" />
<glyph unicode="&#xb9;" horiz-adv-x="774" d="M92 1585l430 37v-666h193v-184h-613v184h197v463l-197 -16z" />
<glyph unicode="&#xba;" horiz-adv-x="831" d="M74 1038q0 75 18 135.5t56.5 108.5t106 74t159.5 26q93 0 161 -26t106.5 -73.5t56.5 -108t18 -136.5q0 -342 -342 -342q-92 0 -159.5 26t-106 74t-56.5 108t-18 134zM266 1038q0 -209 148 -209q149 0 149 209q0 211 -149 211q-148 0 -148 -211z" />
<glyph unicode="&#xbb;" horiz-adv-x="1079" d="M70 160q108 109 148 176.5t40 140.5t-38 139.5t-150 176.5l141 157q131 -108 225 -235.5t94 -231.5q0 -65 -26.5 -131.5t-76.5 -129.5t-99.5 -112.5t-116.5 -107.5zM551 160q108 109 148 176.5t40 140.5t-38 139.5t-150 176.5l141 157q132 -109 226 -236t94 -231 q0 -65 -27 -131.5t-77 -129.5t-99.5 -112.5t-116.5 -107.5z" />
<glyph unicode="&#xbc;" horiz-adv-x="1800" d="M90 1333l430 37v-665h193v-185h-613v185h197v462l-197 -16zM418 0l846 1354h194l-846 -1354h-194zM954 184v166l392 522h235v-516h158v-172h-158v-184h-213v184h-414zM1180 356h188v250z" />
<glyph unicode="&#xbd;" horiz-adv-x="1855" d="M86 1333l430 37v-665h193v-185h-613v185h197v462l-197 -16zM424 0l846 1354h194l-846 -1354h-194zM1110 582v16q0 130 76.5 196t243.5 66q147 0 228 -59t81 -178q0 -56 -12.5 -101.5t-44 -89t-61.5 -74.5t-87 -84l-98 -90h192v99h160v-283h-676v154q111 87 193 159 q113 99 156.5 165t43.5 122q0 98 -90 98q-45 0 -66.5 -24.5t-21.5 -87.5q0 -29 2 -43z" />
<glyph unicode="&#xbe;" horiz-adv-x="1767" d="M76 709v14l217 37q-2 -6 -2 -19q0 -79 104 -79q58 0 84.5 28.5t26.5 73.5q0 98 -180 98h-31v160h31q149 0 149 100q0 42 -19.5 69.5t-60.5 27.5q-92 0 -92 -82v-15l-219 35q0 103 80.5 163t228.5 60q144 0 230 -56.5t86 -174.5q0 -81 -44.5 -134t-113.5 -67 q85 -10 137.5 -58.5t52.5 -144.5q0 -110 -90.5 -177.5t-261.5 -67.5q-142 0 -227.5 53.5t-85.5 155.5zM385 0l846 1354h194l-845 -1354h-195zM942 184v166l391 522h236v-516h157v-172h-157v-184h-213v184h-414zM1167 356h189v250z" />
<glyph unicode="&#xbf;" horiz-adv-x="1001" d="M53 -121q0 59 19.5 108t50.5 84t68.5 66.5t75.5 64t69 68.5t50.5 87t19.5 112q0 18 -3 33h252q4 -25 4 -70q0 -69 -17.5 -127t-45.5 -97.5t-62 -73t-68.5 -61t-62.5 -54.5t-45.5 -60.5t-17.5 -71.5q0 -23 6.5 -43.5t22.5 -41.5t51 -33.5t86 -12.5q89 0 135.5 43t46.5 142 q0 33 -2 51l256 -35q8 -39 8 -82q0 -156 -121.5 -235.5t-328.5 -79.5q-213 0 -330 85t-117 234zM350 799q0 72 51 122t123 50t122 -50t50 -122t-50 -123t-122 -51t-123 51t-51 123z" />
<glyph unicode="&#xc0;" horiz-adv-x="1406" d="M29 0v203h116l414 1151h275l440 -1151h117v-203h-531v203h131l-61 159h-463l-55 -159h131v-203h-514zM362 1733l142 172l368 -318l-100 -127zM541 575h309l-160 447z" />
<glyph unicode="&#xc1;" horiz-adv-x="1406" d="M29 0v203h116l414 1151h275l440 -1151h117v-203h-531v203h131l-61 159h-463l-55 -159h131v-203h-514zM489 1587l369 318l141 -172l-409 -273zM541 575h309l-160 447z" />
<glyph unicode="&#xc2;" horiz-adv-x="1406" d="M29 0v203h116l414 1151h275l440 -1151h117v-203h-531v203h131l-61 159h-463l-55 -159h131v-203h-514zM332 1550l284 328h148l285 -328l-121 -92l-238 230l-237 -230zM541 575h309l-160 447z" />
<glyph unicode="&#xc3;" horiz-adv-x="1406" d="M29 0v203h116l414 1151h275l440 -1151h117v-203h-531v203h131l-61 159h-463l-55 -159h131v-203h-514zM309 1522q0 6 1 16t7 39.5t15 56t28 59t44 56t65.5 39.5t89.5 16q38 0 78 -17t67.5 -37t58.5 -37t54 -17q39 0 61 28t24 56l3 28h168q0 -6 -0.5 -16t-5.5 -39.5 t-13.5 -56t-27 -59t-44 -56t-67.5 -39.5t-94 -16q-37 0 -70 10.5t-56 26t-43 31t-40 26t-39 10.5q-39 0 -63 -27t-28 -54l-5 -27h-168zM541 575h309l-160 447z" />
<glyph unicode="&#xc4;" horiz-adv-x="1406" d="M29 0v203h116l414 1151h275l440 -1151h117v-203h-531v203h131l-61 159h-463l-55 -159h131v-203h-514zM295 1671q0 60 44 104t103 44q61 0 105.5 -44t44.5 -104q0 -61 -44 -104t-106 -43q-59 0 -103 43t-44 104zM541 575h309l-160 447zM791 1671q0 60 44 104t105 44 q59 0 103 -44t44 -104q0 -61 -44 -104t-103 -43q-62 0 -105.5 43t-43.5 104z" />
<glyph unicode="&#xc5;" horiz-adv-x="1406" d="M29 0v203h116l414 1151h275l440 -1151h117v-203h-531v203h131l-61 159h-463l-55 -159h131v-203h-514zM463 1675q0 91 57 157t170 66t170.5 -66t57.5 -157q0 -87 -58 -153t-170 -66t-169.5 66t-57.5 153zM541 575h309l-160 447zM602 1675q0 -41 24.5 -66.5t63.5 -25.5 q38 0 63 25t25 67q0 46 -23.5 71.5t-64.5 25.5t-64.5 -25.5t-23.5 -71.5z" />
<glyph unicode="&#xc6;" horiz-adv-x="1937" d="M23 0v203h102l514 948h-182v203h1372v-391h-213v178h-399v-353h432v-213h-432v-362h411v199h213v-412h-1063v203h162v229h-397l-123 -229h141v-203h-538zM651 635h289v506h-20z" />
<glyph unicode="&#xc7;" horiz-adv-x="1331" d="M86 688q0 328 169.5 511t477.5 183q243 0 385 -107t142 -280v-24l-271 -60q-5 120 -66.5 181t-193.5 61q-182 0 -265 -115t-83 -352q0 -242 87.5 -363.5t256.5 -121.5q54 0 103 12.5t92.5 38t71.5 71.5t34 107l252 -70q-35 -163 -161.5 -270t-340.5 -117l-18 -82 q18 -2 37 -6t44.5 -12t47 -22.5t41 -34t30.5 -49.5t11 -66q0 -67 -40.5 -113t-102 -65t-140.5 -19q-47 0 -87.5 8.5t-61.5 18t-52 25.5l62 127q16 -15 56.5 -28t78.5 -13q45 0 70.5 18.5t25.5 52.5q0 82 -186 82l47 180q-113 11 -204.5 53t-156 106.5t-108 151t-64 187 t-20.5 215.5z" />
<glyph unicode="&#xc8;" horiz-adv-x="1251" d="M92 0v203h162v948h-162v203h1051v-391h-213v178h-400v-353h433v-213h-433v-362h412v199h213v-412h-1063zM332 1733l141 172l369 -318l-101 -127z" />
<glyph unicode="&#xc9;" horiz-adv-x="1251" d="M92 0v203h162v948h-162v203h1051v-391h-213v178h-400v-353h433v-213h-433v-362h412v199h213v-412h-1063zM459 1587l368 318l142 -172l-410 -273z" />
<glyph unicode="&#xca;" horiz-adv-x="1251" d="M92 0v203h162v948h-162v203h1051v-391h-213v178h-400v-353h433v-213h-433v-362h412v199h213v-412h-1063zM301 1550l285 328h147l285 -328l-121 -92l-238 230l-237 -230z" />
<glyph unicode="&#xcb;" horiz-adv-x="1251" d="M92 0v203h162v948h-162v203h1051v-391h-213v178h-400v-353h433v-213h-433v-362h412v199h213v-412h-1063zM264 1671q0 60 44.5 104t103.5 44q61 0 105 -44t44 -104q0 -61 -43.5 -104t-105.5 -43q-59 0 -103.5 43t-44.5 104zM760 1671q0 60 44 104t105 44q59 0 103.5 -44 t44.5 -104q0 -61 -44.5 -104t-103.5 -43q-62 0 -105.5 43t-43.5 104z" />
<glyph unicode="&#xcc;" horiz-adv-x="784" d="M68 1733l141 172l369 -318l-101 -127zM92 0v203h162v948h-162v203h600v-203h-162v-948h162v-203h-600z" />
<glyph unicode="&#xcd;" horiz-adv-x="784" d="M92 0v203h162v948h-162v203h600v-203h-162v-948h162v-203h-600zM195 1587l368 318l142 -172l-410 -273z" />
<glyph unicode="&#xce;" horiz-adv-x="784" d="M37 1550l285 328h147l285 -328l-121 -92l-238 230l-237 -230zM92 0v203h162v948h-162v203h600v-203h-162v-948h162v-203h-600z" />
<glyph unicode="&#xcf;" horiz-adv-x="784" d="M0 1671q0 60 44 104t103 44q61 0 105.5 -44t44.5 -104q0 -61 -44 -104t-106 -43q-59 0 -103 43t-44 104zM92 0v203h162v948h-162v203h600v-203h-162v-948h162v-203h-600zM496 1671q0 60 44 104t105 44q59 0 103.5 -44t44.5 -104q0 -61 -44.5 -104t-103.5 -43 q-62 0 -105.5 43t-43.5 104z" />
<glyph unicode="&#xd0;" horiz-adv-x="1495" d="M92 0v203h162v391h-160v164h160v393h-162v203h668q162 0 287.5 -48.5t205 -136t120 -206.5t40.5 -263q0 -111 -24 -212t-75.5 -190.5t-126.5 -155.5t-184 -104t-241 -38h-670zM530 213h224q176 0 270 118t94 361q0 235 -95 342t-282 107h-211v-383h240v-164h-240v-381z " />
<glyph unicode="&#xd1;" horiz-adv-x="1644" d="M92 0v203h162v948h-162v203h455l602 -946v743h-162v203h590v-203h-162v-1151h-280l-615 956v-753h162v-203h-590zM432 1522q0 6 1 16t7 39.5t15 56t28 59t44 56t65.5 39.5t89.5 16q38 0 78 -17t67.5 -37t58.5 -37t54 -17q39 0 61 28t25 56l2 28h168q0 -6 -0.5 -16 t-5.5 -39.5t-13.5 -56t-27 -59t-44 -56t-67.5 -39.5t-94 -16q-37 0 -70 10.5t-56 26t-43 31t-40 26t-39 10.5q-39 0 -63 -27t-29 -54l-4 -27h-168z" />
<glyph unicode="&#xd2;" horiz-adv-x="1460" d="M84 680q0 212 73 368.5t220.5 245t355.5 88.5q303 0 473 -180.5t170 -505.5q0 -213 -73 -374.5t-222 -256t-358 -94.5q-156 0 -278.5 53t-200.5 148t-119 224t-41 284zM379 672q0 -241 91.5 -356t252.5 -115q173 0 265.5 119.5t92.5 365.5q0 239 -90.5 353t-257.5 114 q-171 0 -262.5 -117.5t-91.5 -363.5zM395 1733l142 172l368 -318l-100 -127z" />
<glyph unicode="&#xd3;" horiz-adv-x="1460" d="M84 680q0 212 73 368.5t220.5 245t355.5 88.5q303 0 473 -180.5t170 -505.5q0 -213 -73 -374.5t-222 -256t-358 -94.5q-156 0 -278.5 53t-200.5 148t-119 224t-41 284zM379 672q0 -241 91.5 -356t252.5 -115q173 0 265.5 119.5t92.5 365.5q0 239 -90.5 353t-257.5 114 q-171 0 -262.5 -117.5t-91.5 -363.5zM522 1587l369 318l141 -172l-409 -273z" />
<glyph unicode="&#xd4;" horiz-adv-x="1460" d="M84 680q0 212 73 368.5t220.5 245t355.5 88.5q303 0 473 -180.5t170 -505.5q0 -213 -73 -374.5t-222 -256t-358 -94.5q-156 0 -278.5 53t-200.5 148t-119 224t-41 284zM365 1550l284 328h148l284 -328l-120 -92l-238 230l-238 -230zM379 672q0 -241 91.5 -356t252.5 -115 q173 0 265.5 119.5t92.5 365.5q0 239 -90.5 353t-257.5 114q-171 0 -262.5 -117.5t-91.5 -363.5z" />
<glyph unicode="&#xd5;" horiz-adv-x="1460" d="M84 680q0 212 73 368.5t220.5 245t355.5 88.5q303 0 473 -180.5t170 -505.5q0 -213 -73 -374.5t-222 -256t-358 -94.5q-156 0 -278.5 53t-200.5 148t-119 224t-41 284zM342 1522q0 6 1 16t7 39.5t15 56t28 59t44 56t65.5 39.5t89.5 16q38 0 78 -17t67.5 -37t58.5 -37 t54 -17q39 0 61 28t25 56l2 28h168q0 -6 -0.5 -16t-5.5 -39.5t-13.5 -56t-27 -59t-44 -56t-67.5 -39.5t-94 -16q-37 0 -70 10.5t-56 26t-43 31t-40 26t-39 10.5q-39 0 -63 -27t-29 -54l-4 -27h-168zM379 672q0 -241 91.5 -356t252.5 -115q173 0 265.5 119.5t92.5 365.5 q0 239 -90.5 353t-257.5 114q-171 0 -262.5 -117.5t-91.5 -363.5z" />
<glyph unicode="&#xd6;" horiz-adv-x="1460" d="M84 680q0 212 73 368.5t220.5 245t355.5 88.5q303 0 473 -180.5t170 -505.5q0 -213 -73 -374.5t-222 -256t-358 -94.5q-156 0 -278.5 53t-200.5 148t-119 224t-41 284zM328 1671q0 60 44 104t103 44q61 0 105.5 -44t44.5 -104q0 -61 -44 -104t-106 -43q-59 0 -103 43 t-44 104zM379 672q0 -241 91.5 -356t252.5 -115q173 0 265.5 119.5t92.5 365.5q0 239 -90.5 353t-257.5 114q-171 0 -262.5 -117.5t-91.5 -363.5zM823 1671q0 60 44.5 104t105.5 44q59 0 103 -44t44 -104q0 -61 -44 -104t-103 -43q-62 0 -106 43t-44 104z" />
<glyph unicode="&#xd7;" d="M12 80l410 409l-408 408l133 131l406 -407l405 407l134 -133l-406 -406l410 -409l-133 -131l-410 407l-410 -407z" />
<glyph unicode="&#xd8;" horiz-adv-x="1460" d="M84 680q0 212 73 368.5t220.5 245t355.5 88.5q181 0 314 -65l116 180l125 -86l-114 -178q202 -180 202 -537q0 -213 -73 -374.5t-222 -256t-358 -94.5q-175 0 -311 68l-115 -178l-127 82l117 184q-100 94 -151.5 236t-51.5 317zM379 672q0 -195 59 -307l475 743 q-71 45 -180 45q-171 0 -262.5 -117.5t-91.5 -363.5zM545 248q70 -47 178 -47q173 0 265.5 119.5t92.5 365.5q0 189 -61 305z" />
<glyph unicode="&#xd9;" horiz-adv-x="1552" d="M39 1151v203h600v-203h-162v-623q0 -53 7 -96t26.5 -86.5t52 -72.5t87.5 -47.5t128 -18.5q307 0 307 325v619h-161v203h589v-203h-161v-619q0 -130 -33 -231t-101 -176t-180 -114.5t-264 -39.5q-287 0 -430 146.5t-143 410.5v623h-162zM449 1733l141 172l368 -318 l-100 -127z" />
<glyph unicode="&#xda;" horiz-adv-x="1552" d="M39 1151v203h600v-203h-162v-623q0 -53 7 -96t26.5 -86.5t52 -72.5t87.5 -47.5t128 -18.5q307 0 307 325v619h-161v203h589v-203h-161v-619q0 -130 -33 -231t-101 -176t-180 -114.5t-264 -39.5q-287 0 -430 146.5t-143 410.5v623h-162zM575 1587l369 318l141 -172 l-409 -273z" />
<glyph unicode="&#xdb;" horiz-adv-x="1552" d="M39 1151v203h600v-203h-162v-623q0 -53 7 -96t26.5 -86.5t52 -72.5t87.5 -47.5t128 -18.5q307 0 307 325v619h-161v203h589v-203h-161v-619q0 -130 -33 -231t-101 -176t-180 -114.5t-264 -39.5q-287 0 -430 146.5t-143 410.5v623h-162zM418 1550l284 328h148l285 -328 l-121 -92l-238 230l-237 -230z" />
<glyph unicode="&#xdc;" horiz-adv-x="1552" d="M39 1151v203h600v-203h-162v-623q0 -53 7 -96t26.5 -86.5t52 -72.5t87.5 -47.5t128 -18.5q307 0 307 325v619h-161v203h589v-203h-161v-619q0 -130 -33 -231t-101 -176t-180 -114.5t-264 -39.5q-287 0 -430 146.5t-143 410.5v623h-162zM381 1671q0 60 44 104t103 44 q61 0 105.5 -44t44.5 -104q0 -61 -44 -104t-106 -43q-59 0 -103 43t-44 104zM877 1671q0 60 44 104t105 44q59 0 103.5 -44t44.5 -104q0 -61 -44.5 -104t-103.5 -43q-62 0 -105.5 43t-43.5 104z" />
<glyph unicode="&#xdd;" horiz-adv-x="1406" d="M25 1151v203h602v-203h-140l238 -387l225 387h-137v203h559v-203h-143l-383 -631v-317h162v-203h-600v203h161v321l-403 627h-141zM506 1587l368 318l142 -172l-410 -273z" />
<glyph unicode="&#xde;" horiz-adv-x="1259" d="M92 0v203h162v948h-162v203h610v-203h-172v-98h172q270 0 389 -98t119 -289q0 -169 -131 -267t-405 -98h-144v-98h172v-203h-610zM530 514h142q129 0 188.5 36.5t59.5 115.5q0 91 -55 132.5t-175 41.5h-160v-326z" />
<glyph unicode="&#xdf;" horiz-adv-x="1236" d="M63 754v196h142v127q0 200 116 311t347 111q125 0 219 -32.5t151.5 -105.5t57.5 -181q0 -65 -21.5 -119.5t-52 -90t-61.5 -67t-52.5 -67.5t-21.5 -74q0 -34 16 -65t41.5 -56.5t56.5 -51.5t62.5 -57t57 -66t41.5 -84t16 -106q0 -136 -86.5 -220.5t-249.5 -84.5 q-176 0 -281 105l133 166q55 -74 119 -74q50 0 75 30.5t25 67.5q0 38 -31 76.5t-74.5 74.5t-87.5 76.5t-75 98.5t-31 125q0 59 23.5 110t57.5 88.5t68 73t57.5 78.5t23.5 90q0 131 -174 131q-116 0 -162.5 -58t-46.5 -183v-1047h-381v197h125v557h-142z" />
<glyph unicode="&#xe0;" horiz-adv-x="1036" d="M63 242q0 162 150 244.5t416 84.5v33q0 100 -30.5 140t-111.5 40q-78 0 -112.5 -34.5t-34.5 -116.5l-244 47q-2 12 -2 35q0 119 107.5 191.5t300.5 72.5q207 0 295 -86.5t88 -282.5v-295q0 -80 10 -101q15 -32 63 -32q11 0 39 4l-43 -190q-41 -8 -80 -8q-96 0 -146 42.5 t-66 104.5q-41 -69 -111 -116.5t-172 -47.5q-134 0 -225 71.5t-91 199.5zM180 1454l187 123l264 -414l-133 -92zM332 260q0 -92 106 -92q71 0 128 42.5t63 111.5v79q-143 -2 -220 -34t-77 -107z" />
<glyph unicode="&#xe1;" horiz-adv-x="1036" d="M63 242q0 162 150 244.5t416 84.5v33q0 100 -30.5 140t-111.5 40q-78 0 -112.5 -34.5t-34.5 -116.5l-244 47q-2 12 -2 35q0 119 107.5 191.5t300.5 72.5q207 0 295 -86.5t88 -282.5v-295q0 -80 10 -101q15 -32 63 -32q11 0 39 4l-43 -190q-41 -8 -80 -8q-96 0 -146 42.5 t-66 104.5q-41 -69 -111 -116.5t-172 -47.5q-134 0 -225 71.5t-91 199.5zM332 260q0 -92 106 -92q71 0 128 42.5t63 111.5v79q-143 -2 -220 -34t-77 -107zM365 1163l264 414l186 -123l-317 -383z" />
<glyph unicode="&#xe2;" horiz-adv-x="1036" d="M63 242q0 162 150 244.5t416 84.5v33q0 100 -30.5 140t-111.5 40q-78 0 -112.5 -34.5t-34.5 -116.5l-244 47q-2 12 -2 35q0 119 107.5 191.5t300.5 72.5q207 0 295 -86.5t88 -282.5v-295q0 -80 10 -101q15 -32 63 -32q11 0 39 4l-43 -190q-41 -8 -80 -8q-96 0 -146 42.5 t-66 104.5q-41 -69 -111 -116.5t-172 -47.5q-134 0 -225 71.5t-91 199.5zM174 1143l250 411h149l250 -411l-139 -72l-186 279l-185 -279zM332 260q0 -92 106 -92q71 0 128 42.5t63 111.5v79q-143 -2 -220 -34t-77 -107z" />
<glyph unicode="&#xe3;" horiz-adv-x="1036" d="M63 242q0 162 150 244.5t416 84.5v33q0 100 -30.5 140t-111.5 40q-78 0 -112.5 -34.5t-34.5 -116.5l-244 47q-2 12 -2 35q0 119 107.5 191.5t300.5 72.5q207 0 295 -86.5t88 -282.5v-295q0 -80 10 -101q15 -32 63 -32q11 0 39 4l-43 -190q-41 -8 -80 -8q-96 0 -146 42.5 t-66 104.5q-41 -69 -111 -116.5t-172 -47.5q-134 0 -225 71.5t-91 199.5zM115 1112q0 6 1 16t7 39.5t15 56.5t28 59.5t44 56t65.5 39.5t89.5 16q48 0 98 -27.5t91 -54.5t69 -27q39 0 61 28t24 56l3 29h168q0 -6 -0.5 -16t-5.5 -39.5t-13.5 -56.5t-27 -59.5t-44 -56 t-67.5 -39.5t-94 -16q-46 0 -86 16.5t-63 36t-49.5 36t-49.5 16.5q-39 0 -63 -27.5t-28 -54.5l-5 -27h-168zM332 260q0 -92 106 -92q71 0 128 42.5t63 111.5v79q-143 -2 -220 -34t-77 -107z" />
<glyph unicode="&#xe4;" horiz-adv-x="1036" d="M63 242q0 162 150 244.5t416 84.5v33q0 100 -30.5 140t-111.5 40q-78 0 -112.5 -34.5t-34.5 -116.5l-244 47q-2 12 -2 35q0 119 107.5 191.5t300.5 72.5q207 0 295 -86.5t88 -282.5v-295q0 -80 10 -101q15 -32 63 -32q11 0 39 4l-43 -190q-41 -8 -80 -8q-96 0 -146 42.5 t-66 104.5q-41 -69 -111 -116.5t-172 -47.5q-134 0 -225 71.5t-91 199.5zM129 1282q0 60 44 104t103 44q61 0 105.5 -44t44.5 -104q0 -61 -44 -104t-106 -43q-59 0 -103 43t-44 104zM332 260q0 -92 106 -92q71 0 128 42.5t63 111.5v79q-143 -2 -220 -34t-77 -107zM571 1282 q0 60 44.5 104t105.5 44q59 0 103 -44t44 -104q0 -61 -44 -104t-103 -43q-62 0 -106 43t-44 104z" />
<glyph unicode="&#xe5;" horiz-adv-x="1036" d="M63 242q0 162 150 244.5t416 84.5v33q0 100 -30.5 140t-111.5 40q-78 0 -112.5 -34.5t-34.5 -116.5l-244 47q-2 12 -2 35q0 119 107.5 191.5t300.5 72.5q207 0 295 -86.5t88 -282.5v-295q0 -80 10 -101q15 -32 63 -32q11 0 39 4l-43 -190q-41 -8 -80 -8q-96 0 -146 42.5 t-66 104.5q-41 -69 -111 -116.5t-172 -47.5q-134 0 -225 71.5t-91 199.5zM270 1296q0 91 57.5 157.5t170.5 66.5t170 -66t57 -158q0 -87 -57.5 -153t-169.5 -66t-170 66t-58 153zM332 260q0 -92 106 -92q71 0 128 42.5t63 111.5v79q-143 -2 -220 -34t-77 -107zM410 1296 q0 -41 24.5 -66.5t63.5 -25.5q38 0 63 25t25 67q0 46 -23.5 71.5t-64.5 25.5t-64.5 -25.5t-23.5 -71.5z" />
<glyph unicode="&#xe6;" horiz-adv-x="1576" d="M63 242q0 162 150 244.5t416 84.5v33q0 100 -30.5 140t-111.5 40q-73 0 -105 -34.5t-32 -116.5l-254 47q-2 12 -2 35q0 119 107.5 191.5t300.5 72.5q204 0 291 -125q107 125 292 125q207 0 312.5 -103.5t105.5 -320.5v-149h-618q8 -116 55 -177t154 -61q78 0 120 28 t64 83l225 -48q-78 -260 -413 -260q-264 0 -381 160q-34 -61 -122 -110.5t-208 -49.5q-134 0 -225 71.5t-91 199.5zM332 260q0 -92 106 -92q71 0 128 42.5t63 111.5v79q-143 -2 -220 -34t-77 -107zM889 596h352v16q0 76 -38.5 123t-121.5 47q-87 0 -132 -41t-60 -145z" />
<glyph unicode="&#xe7;" horiz-adv-x="976" d="M72 477q0 110 24 196.5t65.5 143.5t101 94t126.5 52.5t146 15.5q170 0 278.5 -74.5t108.5 -208.5q0 -22 -2 -34l-256 -50v27q0 143 -127 143q-56 0 -96 -26.5t-61.5 -73.5t-30.5 -100t-9 -117q0 -297 188 -297q67 0 111 38t55 99l232 -47q-79 -263 -351 -285l-18 -82 q18 -2 37 -6t44.5 -12t47 -22.5t41 -34t30.5 -49.5t11 -66q0 -67 -40.5 -113t-102 -65t-140.5 -19q-47 0 -87 9t-61 18t-52 25l61 127q16 -15 56.5 -28t78.5 -13q45 0 71 19t26 52q0 82 -187 82l47 182q-182 23 -274 151.5t-92 348.5z" />
<glyph unicode="&#xe8;" horiz-adv-x="1030" d="M70 475q0 79 14 149.5t49 136.5t87.5 113.5t134.5 76t186 28.5q205 0 311 -115t106 -340v-108h-618q7 -120 53 -184t156 -64q78 0 120 28t64 83l225 -48q-78 -260 -413 -260q-231 0 -353 125t-122 379zM219 1454l187 123l264 -414l-133 -92zM344 596h346v16 q0 170 -153 170q-87 0 -133 -41t-60 -145z" />
<glyph unicode="&#xe9;" horiz-adv-x="1030" d="M70 475q0 79 14 149.5t49 136.5t87.5 113.5t134.5 76t186 28.5q205 0 311 -115t106 -340v-108h-618q7 -120 53 -184t156 -64q78 0 120 28t64 83l225 -48q-78 -260 -413 -260q-231 0 -353 125t-122 379zM344 596h346v16q0 170 -153 170q-87 0 -133 -41t-60 -145zM403 1163 l265 414l186 -123l-317 -383z" />
<glyph unicode="&#xea;" horiz-adv-x="1030" d="M70 475q0 79 14 149.5t49 136.5t87.5 113.5t134.5 76t186 28.5q205 0 311 -115t106 -340v-108h-618q7 -120 53 -184t156 -64q78 0 120 28t64 83l225 -48q-78 -260 -413 -260q-231 0 -353 125t-122 379zM213 1143l250 411h149l250 -411l-139 -72l-186 279l-185 -279z M344 596h346v16q0 170 -153 170q-87 0 -133 -41t-60 -145z" />
<glyph unicode="&#xeb;" horiz-adv-x="1030" d="M70 475q0 79 14 149.5t49 136.5t87.5 113.5t134.5 76t186 28.5q205 0 311 -115t106 -340v-108h-618q7 -120 53 -184t156 -64q78 0 120 28t64 83l225 -48q-78 -260 -413 -260q-231 0 -353 125t-122 379zM168 1282q0 60 44 104t103 44q61 0 105.5 -44t44.5 -104 q0 -61 -44 -104t-106 -43q-59 0 -103 43t-44 104zM344 596h346v16q0 170 -153 170q-87 0 -133 -41t-60 -145zM610 1282q0 60 44.5 104t105.5 44q59 0 103 -44t44 -104q0 -61 -44 -104t-103 -43q-62 0 -106 43t-44 104z" />
<glyph unicode="&#xec;" horiz-adv-x="641" d="M18 1454l187 123l264 -414l-133 -92zM57 754v196h410v-753h125v-197h-506v197h125v557h-154z" />
<glyph unicode="&#xed;" horiz-adv-x="641" d="M57 754v196h410v-753h125v-197h-506v197h125v557h-154zM203 1163l264 414l186 -123l-317 -383z" />
<glyph unicode="&#xee;" horiz-adv-x="641" d="M12 1143l250 411h150l250 -411l-140 -72l-186 279l-184 -279zM57 754v196h410v-753h125v-197h-506v197h125v557h-154z" />
<glyph unicode="&#xef;" horiz-adv-x="641" d="M-33 1282q0 60 44.5 104t103.5 44q61 0 105 -44t44 -104q0 -61 -43.5 -104t-105.5 -43q-59 0 -103.5 43t-44.5 104zM57 754v196h410v-753h125v-197h-506v197h125v557h-154zM410 1282q0 60 44 104t105 44q59 0 103.5 -44t44.5 -104q0 -61 -44.5 -104t-103.5 -43 q-62 0 -105.5 43t-43.5 104z" />
<glyph unicode="&#xf0;" horiz-adv-x="1097" d="M70 457q0 212 127 337.5t319 125.5q136 0 225 -93q-74 183 -217 306l-268 -164l-80 131l207 127q-87 46 -246 90l64 180q237 -54 381 -149l249 151l78 -131l-198 -123q303 -276 303 -729q0 -263 -121.5 -404t-355.5 -141q-467 0 -467 486zM340 457q0 -77 8 -127t30.5 -90 t64.5 -58t108 -18q114 0 162.5 72t48.5 219q0 149 -44 210.5t-167 61.5q-211 0 -211 -270z" />
<glyph unicode="&#xf1;" horiz-adv-x="1239" d="M57 754v196h394v-186q10 25 23.5 49t40.5 55.5t60 54.5t84.5 39.5t110.5 16.5q303 0 303 -330v-452h123v-197h-491v197h112v385q0 92 -28.5 135t-88.5 43q-43 0 -80.5 -21t-62 -51t-44.5 -69.5t-29.5 -69t-16.5 -57.5v-295h113v-197h-492v197h123v557h-154zM274 1112 q0 6 1 16t7 39.5t15 56.5t28 59.5t44 56t65.5 39.5t89.5 16q48 0 98 -27.5t91 -54.5t69 -27q39 0 61 28t25 56l2 29h168q0 -6 -0.5 -16t-5.5 -39.5t-13.5 -56.5t-27 -59.5t-44 -56t-67.5 -39.5t-94 -16q-46 0 -85.5 16.5t-62.5 36t-49.5 36t-49.5 16.5q-25 0 -44 -11 t-28.5 -27.5t-15.5 -32.5t-7 -27l-2 -11h-168z" />
<glyph unicode="&#xf2;" horiz-adv-x="1085" d="M70 475q0 110 25 198t79 158.5t147.5 109t221.5 38.5t221.5 -38t147.5 -108t79 -158.5t25 -199.5t-25 -199.5t-79 -158.5t-147.5 -108t-221.5 -38t-221.5 38.5t-147.5 109t-79 158.5t-25 198zM221 1454l187 123l264 -414l-133 -92zM338 475q0 -307 205 -307t205 307 t-205 307t-205 -307z" />
<glyph unicode="&#xf3;" horiz-adv-x="1085" d="M70 475q0 110 25 198t79 158.5t147.5 109t221.5 38.5t221.5 -38t147.5 -108t79 -158.5t25 -199.5t-25 -199.5t-79 -158.5t-147.5 -108t-221.5 -38t-221.5 38.5t-147.5 109t-79 158.5t-25 198zM338 475q0 -307 205 -307t205 307t-205 307t-205 -307zM406 1163l264 414 l186 -123l-317 -383z" />
<glyph unicode="&#xf4;" horiz-adv-x="1085" d="M70 475q0 110 25 198t79 158.5t147.5 109t221.5 38.5t221.5 -38t147.5 -108t79 -158.5t25 -199.5t-25 -199.5t-79 -158.5t-147.5 -108t-221.5 -38t-221.5 38.5t-147.5 109t-79 158.5t-25 198zM215 1143l250 411h149l250 -411l-139 -72l-186 279l-185 -279zM338 475 q0 -307 205 -307t205 307t-205 307t-205 -307z" />
<glyph unicode="&#xf5;" horiz-adv-x="1085" d="M70 475q0 110 25 198t79 158.5t147.5 109t221.5 38.5t221.5 -38t147.5 -108t79 -158.5t25 -199.5t-25 -199.5t-79 -158.5t-147.5 -108t-221.5 -38t-221.5 38.5t-147.5 109t-79 158.5t-25 198zM156 1112q0 6 1 16t7 39.5t15 56.5t28 59.5t44 56t65.5 39.5t89.5 16 q48 0 98 -27.5t91 -54.5t69 -27q39 0 61 28t25 56l2 29h168q0 -6 -0.5 -16t-5.5 -39.5t-13.5 -56.5t-27 -59.5t-44 -56t-67.5 -39.5t-94 -16q-46 0 -86 16.5t-63 36t-49.5 36t-49.5 16.5q-39 0 -63 -27.5t-29 -54.5l-4 -27h-168zM338 475q0 -307 205 -307t205 307t-205 307 t-205 -307z" />
<glyph unicode="&#xf6;" horiz-adv-x="1085" d="M70 475q0 110 25 198t79 158.5t147.5 109t221.5 38.5t221.5 -38t147.5 -108t79 -158.5t25 -199.5t-25 -199.5t-79 -158.5t-147.5 -108t-221.5 -38t-221.5 38.5t-147.5 109t-79 158.5t-25 198zM170 1282q0 60 44 104t103 44q61 0 105.5 -44t44.5 -104q0 -61 -44 -104 t-106 -43q-59 0 -103 43t-44 104zM338 475q0 -307 205 -307t205 307t-205 307t-205 -307zM612 1282q0 60 44.5 104t105.5 44q59 0 103 -44t44 -104q0 -61 -44 -104t-103 -43q-62 0 -106 43t-44 104z" />
<glyph unicode="&#xf7;" d="M94 406v180h918v-180h-918zM401 123q0 63 44.5 107t107.5 44t107.5 -44t44.5 -107t-44.5 -107.5t-107.5 -44.5t-107.5 44.5t-44.5 107.5zM401 862q0 63 44.5 107.5t107.5 44.5t107.5 -44.5t44.5 -107.5t-44.5 -107t-107.5 -44t-107.5 44t-44.5 107z" />
<glyph unicode="&#xf8;" horiz-adv-x="1085" d="M70 475q0 110 25 198t79 158.5t147.5 109t221.5 38.5q131 0 231 -43l107 158l108 -70l-106 -160q133 -127 133 -389q0 -111 -25 -199.5t-79 -158.5t-147.5 -108t-221.5 -38q-136 0 -236 43l-100 -149l-111 69l105 154q-131 128 -131 387zM328 475q0 -99 22 -166l301 445 q-45 28 -108 28q-215 0 -215 -307zM430 197q47 -29 113 -29q215 0 215 307q0 99 -25 170z" />
<glyph unicode="&#xf9;" horiz-adv-x="1202" d="M43 754v196h379v-581q0 -92 28.5 -135.5t88.5 -43.5q43 0 80.5 21t62 51t44.5 70t29.5 68.5t16.5 56.5v297h-123v196h379v-753h123v-197h-354l-11 184q-12 -32 -33 -63.5t-57.5 -68t-95.5 -59t-131 -22.5q-303 0 -303 330v453h-123zM276 1454l187 123l264 -414l-133 -92z " />
<glyph unicode="&#xfa;" horiz-adv-x="1202" d="M43 754v196h379v-581q0 -92 28.5 -135.5t88.5 -43.5q43 0 80.5 21t62 51t44.5 70t29.5 68.5t16.5 56.5v297h-123v196h379v-753h123v-197h-354l-11 184q-12 -32 -33 -63.5t-57.5 -68t-95.5 -59t-131 -22.5q-303 0 -303 330v453h-123zM461 1163l264 414l186 -123l-317 -383 z" />
<glyph unicode="&#xfb;" horiz-adv-x="1202" d="M43 754v196h379v-581q0 -92 28.5 -135.5t88.5 -43.5q43 0 80.5 21t62 51t44.5 70t29.5 68.5t16.5 56.5v297h-123v196h379v-753h123v-197h-354l-11 184q-12 -32 -33 -63.5t-57.5 -68t-95.5 -59t-131 -22.5q-303 0 -303 330v453h-123zM270 1143l250 411h150l250 -411 l-140 -72l-186 279l-184 -279z" />
<glyph unicode="&#xfc;" horiz-adv-x="1202" d="M43 754v196h379v-581q0 -92 28.5 -135.5t88.5 -43.5q43 0 80.5 21t62 51t44.5 70t29.5 68.5t16.5 56.5v297h-123v196h379v-753h123v-197h-354l-11 184q-12 -32 -33 -63.5t-57.5 -68t-95.5 -59t-131 -22.5q-303 0 -303 330v453h-123zM225 1282q0 60 44.5 104t103.5 44 q61 0 105 -44t44 -104q0 -61 -43.5 -104t-105.5 -43q-59 0 -103.5 43t-44.5 104zM668 1282q0 60 44 104t105 44q59 0 103.5 -44t44.5 -104q0 -61 -44.5 -104t-103.5 -43q-62 0 -105.5 43t-43.5 104z" />
<glyph unicode="&#xfd;" horiz-adv-x="1132" d="M33 754v196h461v-196h-72l108 -267q35 -90 60 -194q21 87 57 194l90 267h-71v196h442v-196h-117l-284 -738l-33 -190q-9 -51 -24 -94.5t-42 -86.5t-63.5 -73.5t-90.5 -49t-120 -18.5q-50 0 -94.5 10.5t-72.5 26t-48.5 30.5t-29.5 25l-9 11l125 166q6 -7 16.5 -17.5 t42.5 -27.5t64 -17q98 0 121 172l18 131l-324 740h-110zM420 1163l264 414l186 -123l-317 -383z" />
<glyph unicode="&#xfe;" horiz-adv-x="1130" d="M-18 1274v196h405v-620q48 64 113.5 96.5t163.5 32.5q88 0 157.5 -28t113.5 -74.5t73 -110.5t41 -131.5t12 -142.5q0 -112 -28 -205.5t-82.5 -164.5t-142 -111t-200.5 -40q-134 0 -219 105v-346h123v-197h-502v197h123v1544h-151zM389 471q0 -303 203 -303q201 0 201 321 q0 293 -187 293q-113 0 -165 -84t-52 -227z" />
<glyph unicode="&#xff;" horiz-adv-x="1132" d="M33 754v196h461v-196h-72l108 -267q35 -90 60 -194q21 87 57 194l90 267h-71v196h442v-196h-117l-284 -738l-33 -190q-9 -51 -24 -94.5t-42 -86.5t-63.5 -73.5t-90.5 -49t-120 -18.5q-50 0 -94.5 10.5t-72.5 26t-48.5 30.5t-29.5 25l-9 11l125 166q6 -7 16.5 -17.5 t42.5 -27.5t64 -17q98 0 121 172l18 131l-324 740h-110zM209 1282q0 60 44 104t103 44q61 0 105.5 -44t44.5 -104q0 -61 -44 -104t-106 -43q-59 0 -103 43t-44 104zM651 1282q0 60 44.5 104t105.5 44q59 0 103 -44t44 -104q0 -61 -44 -104t-103 -43q-62 0 -106 43t-44 104z " />
<glyph unicode="&#x152;" horiz-adv-x="1927" d="M84 680q0 212 73 368.5t220.5 245t355.5 88.5q116 0 211 -28h875v-391h-213v178h-400v-353h432v-213h-432v-362h412v199h213v-412h-893q-102 -29 -215 -29q-156 0 -278.5 53t-200.5 148t-119 224t-41 284zM379 672q0 -241 91.5 -356t252.5 -115q117 0 207 35v878 q-86 39 -197 39q-171 0 -262.5 -117.5t-91.5 -363.5z" />
<glyph unicode="&#x153;" horiz-adv-x="1667" d="M70 475q0 110 25 198t79 158.5t147.5 109t221.5 38.5q202 0 319 -117q117 117 314 117q207 0 312 -103.5t105 -320.5v-149h-618q8 -116 55 -177t154 -61q78 0 120 28t64 83l225 -48q-78 -260 -413 -260q-203 0 -322 113q-116 -113 -315 -113q-128 0 -221.5 38.5 t-147.5 109t-79 158.5t-25 198zM338 475q0 -307 205 -307t205 307t-205 307t-205 -307zM979 596h352v16q0 76 -38.5 123t-121.5 47q-87 0 -132 -41t-60 -145z" />
<glyph unicode="&#x178;" horiz-adv-x="1406" d="M25 1151v203h602v-203h-140l238 -387l225 387h-137v203h559v-203h-143l-383 -631v-317h162v-203h-600v203h161v321l-403 627h-141zM311 1671q0 60 44.5 104t103.5 44q61 0 105 -44t44 -104q0 -61 -43.5 -104t-105.5 -43q-59 0 -103.5 43t-44.5 104zM807 1671q0 60 44 104 t105 44q59 0 103.5 -44t44.5 -104q0 -61 -44.5 -104t-103.5 -43q-62 0 -105.5 43t-43.5 104z" />
<glyph unicode="&#x2c6;" horiz-adv-x="1024" d="M203 1143l250 411h149l250 -411l-139 -72l-187 279l-184 -279z" />
<glyph unicode="&#x2dc;" horiz-adv-x="1001" d="M147 1112q0 6 1 16t7 39.5t15 56.5t28 59.5t44 56t65.5 39.5t89.5 16q48 0 98 -27.5t91 -54.5t69 -27q39 0 61 28t24 56l3 29h168q0 -6 -0.5 -16t-5.5 -39.5t-13.5 -56.5t-27 -59.5t-44 -56t-67.5 -39.5t-94 -16q-46 0 -85.5 16.5t-62.5 36t-49.5 36t-49.5 16.5 q-25 0 -44 -11t-28.5 -27.5t-15.5 -32.5t-8 -27l-1 -11h-168z" />
<glyph unicode="&#x2000;" horiz-adv-x="952" />
<glyph unicode="&#x2001;" horiz-adv-x="1905" />
<glyph unicode="&#x2002;" horiz-adv-x="952" />
<glyph unicode="&#x2003;" horiz-adv-x="1905" />
<glyph unicode="&#x2004;" horiz-adv-x="635" />
<glyph unicode="&#x2005;" horiz-adv-x="476" />
<glyph unicode="&#x2006;" horiz-adv-x="317" />
<glyph unicode="&#x2007;" horiz-adv-x="317" />
<glyph unicode="&#x2008;" horiz-adv-x="238" />
<glyph unicode="&#x2009;" horiz-adv-x="381" />
<glyph unicode="&#x200a;" horiz-adv-x="105" />
<glyph unicode="&#x2010;" horiz-adv-x="737" d="M111 371v221h516v-221h-516z" />
<glyph unicode="&#x2011;" horiz-adv-x="737" d="M111 371v221h516v-221h-516z" />
<glyph unicode="&#x2012;" horiz-adv-x="737" d="M111 371v221h516v-221h-516z" />
<glyph unicode="&#x2013;" horiz-adv-x="1249" d="M113 391v182h1024v-182h-1024z" />
<glyph unicode="&#x2014;" horiz-adv-x="2273" d="M113 391v182h2048v-182h-2048z" />
<glyph unicode="&#x2018;" horiz-adv-x="507" d="M66 1077q0 67 21 128t60.5 113t78.5 90.5t93 82.5l109 -119q-131 -105 -131 -207q0 -21 2.5 -37t14 -34.5t17.5 -28t31 -32t36.5 -32t50.5 -40.5l-193 -158q-74 28 -132 99t-58 175z" />
<glyph unicode="&#x2019;" horiz-adv-x="505" d="M61 1329l193 158q74 -28 132 -99.5t58 -175.5q0 -66 -21 -127t-61 -113.5t-79 -90.5t-93 -82l-108 119q131 105 131 206q0 25 -6.5 46t-14 36t-32 38t-40.5 36.5t-59 48.5z" />
<glyph unicode="&#x201a;" horiz-adv-x="516" d="M57 156l193 157q74 -28 132 -99t58 -175q0 -66 -21 -127.5t-61 -113.5t-79 -90.5t-93 -82.5l-108 119q131 105 131 207q0 25 -6.5 46t-14 36t-32 38t-40.5 36.5t-59 48.5z" />
<glyph unicode="&#x201c;" horiz-adv-x="917" d="M66 1077q0 67 21 128t60.5 113t78.5 90.5t93 82.5l109 -119q-131 -105 -131 -207q0 -21 2.5 -37t14 -34.5t17.5 -28t31 -32t36.5 -32t50.5 -40.5l-193 -158q-74 28 -132 99t-58 175zM475 1077q0 66 21 127.5t61 113.5t79 90.5t93 82.5l109 -119q-131 -105 -131 -207 q0 -31 6.5 -53t30 -49t43 -43.5t71.5 -58.5l-192 -158q-74 28 -132.5 99t-58.5 175z" />
<glyph unicode="&#x201d;" horiz-adv-x="915" d="M61 1329l193 158q74 -28 132 -99.5t58 -175.5q0 -66 -21 -127t-61 -113.5t-79 -90.5t-93 -82l-108 119q131 105 131 206q0 25 -6.5 46t-14 36t-32 38t-40.5 36.5t-59 48.5zM471 1329l193 158q74 -28 132 -99.5t58 -175.5q0 -66 -21 -127t-61 -113.5t-79 -90.5t-93 -82 l-108 119q131 105 131 206q0 25 -6.5 46t-14 36t-32 38t-40.5 36.5t-59 48.5z" />
<glyph unicode="&#x201e;" horiz-adv-x="925" d="M57 156l193 157q74 -28 132 -99t58 -175q0 -66 -21 -127.5t-61 -113.5t-79 -90.5t-93 -82.5l-108 119q131 105 131 207q0 25 -6.5 46t-14 36t-32 38t-40.5 36.5t-59 48.5zM467 156l192 157q74 -28 132.5 -99t58.5 -175q0 -66 -21 -127.5t-61 -113.5t-79 -90.5t-93 -82.5 l-109 119q131 105 131 207q0 58 -29 94t-122 111z" />
<glyph unicode="&#x2022;" horiz-adv-x="1024" d="M170 489q0 141 100.5 241.5t241.5 100.5t241.5 -100.5t100.5 -241.5t-100.5 -241.5t-241.5 -100.5t-241.5 100.5t-100.5 241.5z" />
<glyph unicode="&#x2026;" horiz-adv-x="1492" d="M82 143q0 72 50 123t122 51t123 -51t51 -123t-51 -122t-123 -50t-122 50t-50 122zM573 143q0 72 50 123t122 51t123.5 -51t51.5 -123t-51.5 -122t-123.5 -50t-122 50t-50 122zM1065 143q0 72 50 123t122 51t123 -51t51 -123t-51 -122t-123 -50t-122 50t-50 122z" />
<glyph unicode="&#x202f;" horiz-adv-x="381" />
<glyph unicode="&#x2039;" horiz-adv-x="598" d="M68 483q0 104 94 231.5t225 235.5l141 -157q-112 -110 -150 -176.5t-38 -139.5t40 -140.5t148 -176.5l-141 -158q-67 58 -116.5 107.5t-99.5 112.5t-76.5 129.5t-26.5 131.5z" />
<glyph unicode="&#x203a;" horiz-adv-x="598" d="M70 160q108 109 148 176.5t40 140.5t-38 139.5t-150 176.5l141 157q131 -108 225 -235.5t94 -231.5q0 -65 -26.5 -131.5t-76.5 -129.5t-99.5 -112.5t-116.5 -107.5z" />
<glyph unicode="&#x205f;" horiz-adv-x="476" />
<glyph unicode="&#x20ac;" d="M-14 371v123h141v59q0 14 1 39t1 37h-143v123h157q76 405 502 405q192 0 306 -77t114 -224l-254 -51q0 147 -178 147q-99 0 -150 -48.5t-69 -151.5h307v-123h-320v-56q0 -54 2 -79h318v-123h-305q21 -107 72 -151t143 -44q59 0 102 15.5t63 37.5t31.5 44t12.5 37l2 16 l227 -58q0 -6 -1.5 -17t-11 -41.5t-25.5 -58.5t-49 -62.5t-77.5 -59t-115.5 -41.5t-158 -17q-217 0 -336.5 100t-153.5 300h-155z" />
<glyph unicode="&#x2122;" horiz-adv-x="1710" d="M72 1180v174h575v-174h-180v-463h-195v463h-200zM733 717v637h281l143 -410l135 410h279v-637h-185v477l-159 -477h-146l-163 471v-471h-185z" />
<glyph unicode="&#x25fc;" horiz-adv-x="952" d="M0 0v952h952v-952h-952z" />
</font>
</defs>
</svg>
