<svg xmlns="http://www.w3.org/2000/svg" viewBox="0 0 290.6 123.1"><title>Asset 1</title><path d="M73 23.8c0-12.2 14.7-22 32.9-22s32.9 9.9 32.9 22-14.7 22-32.9 22S73 36 73 23.8zm32.9 17.3c15.5 0 28.1-7.7 28.1-17.2S121.4 6.6 105.9 6.6s-28.1 7.7-28.1 17.2 12.7 17.3 28.1 17.3z"/><path d="M111.9 39l-2.3-8.2h-9.7l-2.5 7.6-6.2-2.1 1.3-3.4c1.7-.6 3.3-1.7 4.4-3.1 2-3 1.5-4.9 1.5-4.9h-2.8l6.2-16.6h7.7l4.7 15.4L111 33h5.9l1.5 4.6-6.5 1.4zm-10.3-13.6h6.5L105.2 15l-3.6 10.4z"/><path d="M92.7 25.5s-.6 2.8-2.7 2.7c-2.1 0-3.2-2.1-3.5-4.7-.3-2.4.4-4.8 1.8-6.6 1-.9 2.7-.9 3.6.2.4.6.7 1.3.8 2h4.8c.1-1.9-.6-3.7-2-5-2.4-2.3-6-2.8-9-1.3-3.2 1.5-4.9 5.2-5.2 8-.3 2.8 0 5.9 1.8 8.1s3.9 4.5 8.3 3.6c3.4-.6 6-3.4 6.4-6.9l-5.1-.1zM118.6 13.1h5.4l5.7 19.2h-4.9l-1.1-3.7h-5.6l-1.2 3.7H112l6.6-19.2zm.7 11.5h3.4l-1.7-5.9-1.7 5.9zM146.4 23.8c0-12.2 16-22 35.6-22s35.6 9.9 35.6 22-15.9 22-35.6 22-35.6-9.8-35.6-22zm20.2-17.1l6.7 22.9 7.1-25.9c-4.7.2-9.4 1.2-13.8 3zm13.5 9.5l-3.7 13.5h7.4l-3.7-13.5zm10.5 13.5L197 6.5c-4.4-1.8-9.2-2.7-14-2.8l7.6 26zm-24.1 0l-3.7-13.5-3.7 13.5h7.4zm42.2 2.7c1.8-2.5 2.7-5.5 2.8-8.5 0-5.9-3.8-11.2-9.6-14.9l6.8 23.4zm-7.5-2.7l-3.8-13.5-3.7 13.5h7.5zm.7 2.7H193l-.8 2.9 2 7c3.3-1 6.3-2.5 9.1-4.5l-1.4-5.4zm-32 9.7l-2.7-9.8h-8.8l-.8 2.8c3.5 3.3 7.7 5.7 12.3 7zm14.7-9.8h-8.9l-2.9 10.6c3 .7 6.1 1 9.3 1 1.9 0 3.8-.1 5.7-.4l-3.2-11.2zm-23-22.9c-5.6 3.7-9 8.8-9 14.5 0 3 1 6 2.7 8.4l6.3-22.9z"/><g><path d="M103.8 95.5l-.6-.3-5.2-6.3h11.5zM117.1 95.6l-5.9-6.7h11.7zM130.2 95.6l-5.9-6.7h11.9zM159.7 95.6c-2.3-2-4.4-4.2-6.1-6.7h12.1l-6 6.7zM173.2 95.6l-6-6.7h11.9zM186.5 95.9l-5.9-7h12.1zM89.9 96l6.7-6.9 5.8 6.9zM144 96h-12.8l6-6.7c2.5 2 4.8 4.3 6.8 6.7zM158.1 96h-12.8l6.8-6.7c2.3 2 4.3 4.3 6 6.7zM193.9 89.5c1.9 2.2 4.2 4.4 6.4 6.5h-12.8c2.3-2 3.8-5 6.4-6.5zM115.9 95.9L105 96v-.6l5.2-5.8c2.1 1.7 3.7 4.2 5.7 6.3zM129.1 95.9l-10.8.1v-.6l5-5.8c2.1 1.9 4.1 4 5.8 6.3zM160.5 96l5.7-6.3L172 96zM185.5 96h-11.4l5.4-6.1c2.6 1.4 3.9 4.2 6 6.1zM65.2 95.5c-1.9-1.5-3.5-3.3-4.7-5.4h9.1l-4.4 5.4zM75.7 95.8l-4.6-5.7h9.2zM91.3 90.1c-1.4 1.9-2.8 3.7-4.4 5.4l-4.8-5.4h9.2zM53.8 96l5.4-5.5L64 96zM208.6 90.5s-5.2 5.3-5.4 5.4l-4.2-5.4h9.6zM214.8 96l-4.8-5.5h9.6zM230.5 90.5c-1 2.1-3.4 3.6-4.8 5.6l-4.8-5.6h9.6zM85.3 96h-8.6l4.4-5.1zM226.9 96.5l4.8-5.6 5.1 5.3zM74.7 96h-9l4.4-4.9zM213.6 96.5h-8.8l4.6-5.2zM224.6 96.5h-9l4.3-5c1.8 1.4 3.4 3.1 4.7 5zM64.8 97c3.1 6.5 6.5 13.2 9.4 19.9L54.1 97h10.7zM75.1 115.8c-3.1-6-6.5-12.4-9.4-18.7h9.4v18.7zM76.4 115.8L76.1 97h9.5zM92 102l-15.1 14.9L86.5 97s5.3 5.1 5.5 5zM115.5 121.9L89.9 97h13.5zM116.1 121.4L104.5 97h11.6zM117.5 121.4V97h11.7zM118.1 121.9L130.4 97h13.8zM159.1 97l12.3 24.9L145.6 97zM172.4 121.4L160.2 97h12.2zM173.6 121.4V97h12.2zM200.3 97.6l-26.1 24.3c3.9-8 8.4-16.5 12.6-24.9h13.5v.6zM214 116.1c.1.6-9.3-18.7-9.3-18.7h9.3v18.7zM224.7 97.5c-3 6.3-6.5 12.4-9.7 18.7V97.5h9.7zM236.8 97.5c-6.6 6.5-21.1 19.5-21.1 19.5l10.1-19.5h11zM213.2 116.9L198 102.6l5-5h.7z"/></g><g><path d="M74.9 65.1c.2.9-.1 1.8-.7 2.4 1.2-.9 2.2-2.4 3.9-1.9.7.5 1 1.4.7 2.2-.9 3-3.5 5.4-4.4 8.4-.2.6.3.7.6.8 3.4-.5 5.5-4.2 7-6.9.7-1.3 1.4-2.7 2-4.1l.4.3c-2.4 5.7-4.7 10.8-9.7 12-.7.2-1.5 0-2.1-.5-1.8-2.2.2-4.8 1.2-6.8l1.5-2.4c-.3-.7-1.3.2-1.7.2-2.1 2.9-5.5 6.9-7.4 8.1-1.6 1-2.8 1-3.4.5-.7-.5-.9-1.4-.7-2.2-1.4 1.3-3.4 3.1-5.6 2.1-.6-.5-.8-1.4-.5-2.1 1.1-2.9 3.5-4.9 4.9-7.7.2-.3.1-.6-.2-.8-.1 0-.1-.1-.2-.1-1.6.3-2.8 2.1-3.9 3.5-.9 3.9-5.6 7.3-7.3 7.9-1.4.4-3.5 0-4.2-1.4-1.2-3.3.8-6.4 2.9-8.7 1.4-1.5 3.3-2.4 5.4-2.5 1.2 0 2.3.7 2.9 1.7.2.4.4.9.5 1.3.9-.9 2.7-3.7 5.3-2.7.5.2.9.5 1.2 1 1.1 3.5-3 5.9-4.3 8.9 0 .2 0 .4.3.4 1.1-.1 2.2-1.2 3.2-2.3 2-2.4 2.9-4.9 4.9-7.3.9-1.1 1.8.8 3.2-1.2.2.3.3.6.2.9-1.9 3.3-5.5 8.6-5.8 9.8-.3.8 1.1.2 1.6-.2 2.4-2 4.5-4.4 6.3-7-.5 0-.9-.3-1-.8 0-1.3.8-2.6 2-3.2.2-.2.8-.1 1 .4zm-1.2.2c-.6 0-1.4 1.2-1.2 2.2.1.4.6.3.6.3s1.7-2.5.6-2.5zm-21.4 2c-.2.4-1 3.3.8 4.1 1.4-2.2.7-5-.8-4.1zm-.8.3c-2 1.8-3.4 4.2-4.1 6.8-.1.7-.6 2.3.1 2.5 1.1.3 4.6-3.2 5.2-4.8-1.5-.8-1.6-3.5-1.2-4.5z"/><path d="M16.9 80.8c-3.4-3-6.3-8.4-5.3-14.2.9-5.3 3.9-9.2 8.2-11 2.4-1 7.3-1.5 10.2-.1 3.6-4.1 8.9-5.3 14.1-4.4 5.1 1.2 9.2 5.3 15.1 4.3 1.6-.3 2.7-2 3.1-3.3l.5.3c-.4 1.4-1.3 2.5-2.5 3.3-5.2 2.4-10.8-2.3-16.3-2.7-3.7-.3-9-.3-12.4 2.9 1.5 1.4 3.2 2.9 3.9 4.7 1.7.2 3.3.5 4.9 1 1.8-3.8 5.6-6.2 9.8-6 .1.2.1.4-.1.5-.1 0-.1.1-.2.1-2 .5-4.3 1-5.5 3-.5.9-.9 2-1 3.1.5.2 1.1.2 1.6 0 .2-1.2 1-2.2 2.1-2.7.5-.3 1.6-.3 1.8.5.3 1.3-.5 2.2-1.6 2.8.1 1.6.3 3.7-.6 5.1-.5 1-1.6 1.6-2.7 1.7-.6-.1-1-.3-.7-1 .2-.3.6-.4.9-.2.1.1.2.2.3.4.9-1.7 1.1-3.8.6-5.7-.6.1-1.2.1-1.7 0-1.1 6.5-1.8 13.4-8.1 17.3-2.5 1.6-5.4 2.6-8.4 2.8-4.4.5-7.7-.5-10-2.5zm13.7-24c-1.5 1.4-2.6 3.2-3 5.2l1.2-.5c1.7-.5 3.5-.8 5.3-.9-.7-1.6-1.9-3-3.5-3.8zm17.2 3.5c-.5.3-1 .6-.8 1.5.6-.2 1.4-.9.8-1.5zm-13 1.4c-2.4-.3-4.9.2-7.1 1.3-.3 1.5-.1 3.1.8 4.5.6.8 1.4 1.4 2.4 1.6 1.3.4 1.8-.7 2.2 0 .1.2-.1.5-.3.5-1.2.5-2.5.5-3.6-.2-2-1.2-3.1-3.6-2.8-5.9-1.9 1.4-3.7 3.3-4.1 5.6-.6 2.4.4 4.9 2.5 6.2 2.3 1 5 .7 6.9-1 3.2-2.8 4.3-7.3 3.5-11.6l-.4-1zm-10 21c1.9 0 3.9-.4 5.7-1.1 4.1-1.7 6.4-6.1 7.2-10.1.7-3 1.5-5.9 2.3-8.8-1.3-.4-2.6-.7-3.9-.8.4 1.8.5 3.6.3 5.4-.4 3.8-2.8 8-6.8 9.2-1.5.5-4.4.6-6.1-.8-1.5-1.2-2.3-2.9-2.4-4.7-.1-3.6 2.6-6.7 5.4-8.4.4-2.3 1.4-4.4 2.9-6.2-2.6-.9-5.4-1-8-.3-4.5 1.2-7.3 5.8-8.2 10.1-1 5 .7 10.2 4.3 13.8 2 1.7 4.6 2.7 7.3 2.7z"/><g><path d="M119.9 62.8c.4.4.5 1.1.2 1.6-.3.8-1 1.3-1.8 1.4-.6.1-1.2-.4-1.4-1-.1-.7.2-1.4.8-1.9.6-.5 1.6-.6 2.2-.1z"/><path d="M120.1 58.7c-2.4-2.1-5.7-2.9-8.7-2 2.9 4 2.7 10.3.5 14.6-1.8 3.6-5.1 6.9-9.3 7.2-1.8-.1-3.5-.6-5-1.7-2.2 1.2-5.2 2.3-7.7 1-.9-.5-1.5-1.4-1.5-2.4 0-.8.3-1.5.9-2.1 1-1 2.6-.9 3.8-.4 1.2.5 2.4 1.1 3.4 2 .6-.6 1-1.3 1.4-2 1-1.8 1.8-3.8 2.3-5.8-1.5 1.3-3.5 1.9-5.5 1.4-2.6-.8-4.6-2.8-5.2-5.4-1.5 2.3-1.8 5.2-.9 7.7.1.3.3.8-.1.9-.5-.1-.6-.8-.9-1.2-.9-3-.2-6.2 1.7-8.6-.1-4 2.1-7.7 5.7-9.5 3.5-1.5 7.5-1.5 11 0 1.8.7 3.4 1.9 4.7 3.3 3.4-1.1 7.1-.3 9.8 2 .5.5 1 1 1.4 1.6 0 0 .3.4.1.6-.1.2-.6.2-.9-.2.1.3-.5-.5-1-1zm-13.2-4.8c-3.9-2.1-8.6-2.1-12.6-.1-2.5 1.7-4 4.4-4.1 7.4.6-.5 1.3-1 2-1.4 2.1-1 5.1-1.1 7 .4 1.6 1 2.5 2.7 2.4 4.5 2-3.3 4.5-6.9 8.3-8.5-.9-.9-1.9-1.7-3-2.3zm3.4 3.4c-1.2.6-2.3 1.4-3.1 2.5-3.3 5.3-3.2 12.4-8.5 16.5 1.2.8 2.6 1 3.9.6 5.3-2.2 7.5-7.7 8.6-12.8.5-2.3.1-4.7-.9-6.8zm-13.8 2.9c-2.3-.5-4.7.3-6.2 2.2 0 .3.2.7.2 1.1.7 2.3 2.6 4 5 4.5 1.4.3 2.8-.2 3.8-1.2 1.1-.9 1.4-2.5.9-3.8-.7-1.5-2.1-2.5-3.7-2.8zm-2.8 14c-1.1-.4-2.9-1.4-3.9-.2-.5.5-.6 1.3-.5 2 .2.8.8 1 1.5 1.3 2 .6 3.6-.4 5-1.5-.7-.6-1.4-1.2-2.1-1.6z"/><path d="M111.9 78c-1.1-.6-1-2.5-.5-3.8.8-1.9 1.8-3.7 2.8-5.5.4-.8 1.3-1.1 2-.8.5.2 1.1-.1 1.3-.7.3.2.3.5 0 1-1.2 2.2-4 6.7-4.2 8.1 0 .7.4.9.9.7 1-.5 1.9-1.1 2.8-1.9 1.9-4.7 4.5-7.1 8.1-7.5.6-.1 1.5.4 1.5 1 .2-.3.4-.5.7-.7 1-.1 1.9.6 2.5-.7.5.4 0 1.3-.3 1.8-1.2 2-2.8 4.9-4.1 6.9 0 0-1 1.2-.1 1.5 1 .1 2-.4 2.5-1.2 1.6-2.5 3-5 4.6-7.9.9-1.2 2 .5 2.9-1.1.7.5-.7 2.2-.7 2.2 1.1-1 2.9-2.1 4.8-1.7.6.4 1 1 1 1.8 1.2-1.1 3.1-2.7 4.9-1.5 1.1 1.1-.1 2.8-.7 3.9-1.2 1.5-2.2 3.2-3.1 4.9-.2.4 0 .9.8.5 1.1-.7 2.1-1.6 2.9-2.6.7-3.5 3.2-6.3 6.5-7.5 1-.4 2.1-.3 2.9.2 1.5 1.2 1.2 3.6.8 5.3.5-.1.9-.3 1.4-.5 1.8-1.1 1.8-3.5 3.3-4.3.6-.3 1.2.2 1.7.1.4-.2.7-.4.8-.8.7.3-.8 2.4-.8 2.4 1.3-1.1 3.3-2.3 5.1-1.9.8.5 1.1 1.4.7 2.2-1.1 2.4-2.9 4.3-4.2 6.8-.1.3-.2.7.2.7 1.1 0 2.2-1.3 2.9-2 1.2-3.7 4-6.6 7.7-7.9.6-.2 1.2 0 1.6.4.2.3.3.7.1 1 1.2-2.3 6.2-9.6 10.9-11.8.7-.2 1-.2 1.2.4.4 1.2-1.1 4.1-2.3 5.7-2 2.4-4.4 4.4-7.2 5.9-1.5 2.4-2.8 4.9-3.9 7.5-.3.8 0 1 .4 1 1.1.1 2.4-1.2 3.1-2 1.7-1.8 3.2-3.6 4.6-5.6l.3.2c-1.3 2-5 7.2-7.4 8.1-1 .3-2 .2-2.9-.4-.4-.3-.6-.8-.7-1.3-.5 1.4-2.1 2.2-3.6 1.6-.9-.3-1.5-1.1-1.7-2-.6.6-1.2 1.2-2 1.7-.6.4-1.4.5-2.1.4-.6-.1-1-.6-1.2-1.1-.3-3.1 2.3-5.3 3.8-7.6.2-.4.1-.7-.3-.7-2.1.7-3.9 2.9-5 4.7l-2.2 4c-1 1.2-1.9-.3-2.6.6-.5.7-.9.5-.9.4.9-1.7 1.8-3.5 2.5-5.3-.5.2-1 .3-1.6.4-.8.6-1.3 2-3.5 3.5-1.2.9-3.8 1.7-5.3.3-.5-.5-.8-1.2-.8-2-1 1.1-2.6 2.9-4.2 2.9-.7-.1-1.3-.5-1.7-1.1-.9-3.3 2.1-4.9 3.6-7.8.3-.5 0-.6 0-.6-1-.2-2 .8-2.7 1.7-1.6 2.2-3 4.5-4.2 6.9-.4.4-1 .6-1.5.4-.2-.1-.5-.1-.8 0-.3.4-.6.8-1.1 1-.4-.3.1-.5.1-1l4.9-8.7c.1-.4-.2-.5-.6-.3-1.6.6-2.8 2.2-3.9 3.5-1.2 1.8-1.5 2.5-2.6 4.5-.3.5-.5.8-1.1.9-.7 0-.6-.4-1.4-.1-.5.3-.7 1.4-1.4.9.2-.2.3-.5.4-.8-.6.2-1.1.4-1.7.4-.9.1-1.7-.2-2.3-.9-.3-.3-.4-.8-.3-1.3-.6 1.1-1.7 1.8-2.9 2.1-.7 0-1.4-.2-2-.7-.4-.5-.7-1.1-.8-1.8-1.6 1.6-3.4 3.2-5.4 2.4zM187 57.9c-3.5 2.2-8.1 10.6-8.1 10.6 4.2-2.6 7.9-6 8.7-10.2.1-.4-.2-.6-.6-.4zm-34.7 10.2c-2.5 2.3-4.2 5.4-4.7 8.8 0 .5.2.9.7.6 1.6-.8 2.9-2.9 3.4-3.9-.7-.2-1.3-.7-1.6-1.3-.2-.5 0-1.2.4-1.5.4-.4 1-.4 1.5-.1.5.3.3 1.1-.1 1.2s-.4.4-.2.7c.1.1.2.2.3.2.7-1.2 1.2-2.6 1.4-4 .1-1.2-.5-1.2-1.1-.7zm23 .9c0-.5-.4-.5-.9-.2-2.3 1.5-4.2 3.5-5.4 8.2-.1.8.4.8.9.6 1.2-.3 3.2-4.2 5.1-7.6.2-.3.3-.7.3-1zm-55.4 8.5c.8.4 2.3-1.8 3.1-3.1.8-1.4 1.7-2.9 2.5-4.4 0 0 .5-.7.3-1-.2-.3-.6-.4-.9-.2-2.1 1.3-3.2 3.3-4.3 5.4-.7 1.3-1.4 2.8-.7 3.3zM224.1 51.7c6.5 4.1 4.2 9.4 1.8 12.2-1.3 1.4-2.9 2.5-4.7 3.3-.3 1.5-.8 2.9-1.3 4.3-1.4 3-3.8 5.5-6.7 7.1.2.3.5.5.8.7 2.1-1.4 4.2-2.7 6.5-3.9.9-2.4 2.2-4.7 3.7-6.9.8-1 1.8.6 2.5-.7 0 0 .4.1.2.8l-3.1 5.8c.9-.2 1.8-.1 2.6.3 1.1-2.1 2.3-4.1 3.6-6 .7-1 2.1.4 2.4-.8.7.4.1 1.4-.5 2.5-1.3 2.2-3.1 4.4-3 7.2.1.5.6.6 1.2.4 1.7-1 3-2.4 3.8-4.2-1.2-.9-1.6-2.5-1-3.8.3-.8.9-1.5 1.7-1.9.8-.2 1.6 0 2.1.6 1 1.2.4 3.5 0 4.9.2.1.5.1.7 0 1.5-2.3 3.6-4.1 6.1-5.2.9-.4 1.9-.2 2.6.4.7-.3 1.5-.3 2.2 0 .6.2.9-.7.9-.7 1 .4-.7 2.4-1.2 3.5-1.1 1.9-2.3 3.8-3.3 5.7-.1.4-.2.8.3.9 1.1-.2 2-.8 2.7-1.6 1.7-1.9 3.4-3.9 4.9-6-1-.1-.8-1.8-.3-2.5.4-.5.9-1.2 1.5-1.3.3 0 .7.2.8.5 0 .6-.1 1.1-.4 1.7.7-.3 1.4-1.2 2.3-1.3.7-.2 1.3.2 1.6.8.1 3.4-2.7 5.3-3.7 8.2-.1.4-.1 1.1.3 1.2.3 0 .7-.1 1-.3.7-.4 1.2-1 1.7-1.6 1.2-3.7 4-6.6 7.7-7.8.6-.2 1.2 0 1.6.4.2.3.3.7.1 1 1.2-2.3 6.2-9.6 10.9-11.8.7-.2 1-.2 1.2.4.4 1.2-1.1 4.1-2.3 5.7-2 2.4-4.4 4.4-7.2 5.9-1.5 2.4-2.8 4.9-3.9 7.5-.3.8 0 1 .4 1 1.1.1 2.4-1.2 3.1-2 1.7-1.8 3.2-3.6 4.6-5.6l.3.2c-1.3 2-5 7.2-7.4 8.1-1 .3-2 .2-2.9-.4-.4-.3-.6-.8-.7-1.3-.5 1.4-2.1 2.2-3.6 1.6-.9-.3-1.5-1.1-1.7-2-.4.5-.9.9-1.4 1.3-.8.7-1.8 1-2.9.8-.8-.4-1.3-1.2-1.3-2.1.1-2.5 2-4.6 2.9-6.8-.4-.3-.8.3-1.2.4-2.6 2.7-4.5 6.5-7.8 8.3-2.5 1.2-3.9-.6-3.6-1.6-1 1.1-2.4 2.2-3.9 1.7-1.2-.2-1.5-1.4-1.7-2.4 0-.7.1-1.4.3-2.1h-.9c-1.5 3.3-5.1 4.5-7.4 4.9 0 2.2-2.9 4.3-5.7 4.5-4.1.3-6-.7-9.4-3.3-1.7.9-3.4 1.8-5.2 2.5-10.7 3.6-15.7-.8-16.4-1.4-3.4-2.9-4.8-6.2-4.3-11.5.4-4.3 3.3-7.9 7.3-9.3 2-.6 5-.8 6.9.2.2.2 0 .6-.4.4-2.9-1.1-6.1-.6-8.6 1.2-3.8 3.1-5.4 7.3-4.1 13 1.1 3.5 3.8 6.3 7.2 7.6 4 1.1 6.8.8 10.6-.2 2.2-.7 4.4-1.7 6.4-2.9l-.9-.9c-1.6.6-3.2.3-3.7-.7-.2-.6.3-1 .8-1.2 1-.1 2.1.1 2.9.7 3.5-2.3 4.1-6.4 4.8-9.7-1.2.2-2.4.2-3.6.1-3.3 4.9-7.5 12-14 10.6-1.7-.3-3-1.6-3.4-3.2-.4-2.2.4-4.5 2.1-6 3.5-3.1 9.8-2.2 14.6-2.4 2.8-4.5 6.2-9.2 11.3-11.2.4-.2.9-.3 1.4-.2.3.1.4.4.3.7 0 .1-.1.1-.1.2-2 1.5-3.9 4.1-4.4 9.1 3.1-1.3 5.4-4.1 6-7.4.1-2.5-1.2-4.8-3.3-6-3.9-2.6-10.7-4.5-16 .5-2.7 2.8-3.2 5.6-2.3 8.5.5 1.3 1.6 2.4 2.9 2.9.3.2.2.2.2.4-.4.5-1.4-.1-2-.6-2-1.6-2.5-3.8-2.2-6.6.3-2.8 3.1-5.4 3.1-5.4 5.6-4.9 12.6-3.2 16.6-.6zm-14.4 25.9c-.2 0-.5.2-.2.5.5.5 2.2.1 2.2.1-.6-.4-1.3-.7-2-.6zm11.9 1.1c-.9-.3-1.5-1.3-1.3-2.3-1.9 1-3.8 2.1-5.6 3.4 2 1.8 4.6 2.8 7.3 2.9 4.2.1 6.3-2.5 6.2-3.8-1.2-.1-2.1-1.1-2-2.3v-.3c-.6 1-2.5 3-4.6 2.4zM214 67.3c1.1 0 2.3-.1 3.4-.4.7-3.5 2.6-6.7 5.3-9.1-1.6.5-5.1 3.2-8.7 9.5zm-4.3.8c-2.9.1-5.9-.2-8.3 1.1-2.3 1.2-3.6 3.6-3.4 6.2.2 1.3 1.2 2.3 2.4 2.6 1.8.4 3.8-.6 5-1.3 2.8-2.1 5.6-6 7.1-8.5 0 0-1.6-.1-2.8-.1zm24.9.7c-.7.5-1.2 1.4-1.2 2.3 0 .7.3 1.3.8 1.7.3-.5.5-1.1.6-1.7.2-.7.5-2.6-.2-2.3zm9.6.6c-2.5 2.1-4.1 4.9-4.8 8 0 .4.2.8.8.4 3.2-2.5 3.9-5.4 5.1-7.7.2-.4.4-1 .1-1.2-.1-.1-.8.2-1.2.5zm-20.9 6.2c-.3.5-.7 1.4-.3 2 .5.6 2.1-1.1 2.6-1.8-.7-.4-1.5-.4-2.3-.2zm54.9-17.5c-3.5 2.2-8.1 10.6-8.1 10.6 4.2-2.6 7.9-6 8.7-10.2.1-.3-.2-.6-.6-.4zm-11.8 11.1c0-.5-.4-.5-.9-.2-2.3 1.5-4.2 3.5-5.4 8.2-.1.8.4.8.9.6 1.2-.3 3.2-4.2 5.1-7.6.2-.3.3-.6.3-1zm-12.5-2.1c-.6 0-1.3 1.1-1.1 2 .1.4.5.3.5.3s1.7-2.3.6-2.3z"/></g></g></svg>