<svg xmlns="http://www.w3.org/2000/svg" viewBox="0 0 30 30"><path d="M8.594 16.283H5.433v3.162h3.162v-3.162zm0 5.006H5.433v3.162h3.162v-3.162zm5.299-10.011h-3.16v3.162h3.16v-3.162zm0 5.005h-3.16v3.162h3.16v-3.162zm0 5.006h-3.16v3.162h3.16v-3.162zm5.302-10.011h-3.162v3.162h3.162v-3.162zm0 5.005h-3.162v3.162h3.162v-3.162zm0 5.006h-3.162v3.162h3.162v-3.162zm5.297-10.011H21.33v3.162h3.162v-3.162zm0 5.005H21.33v3.162h3.162v-3.162zM26.557.281H3.443A3.172 3.172 0 0 0 .281 3.444v23.114a3.171 3.171 0 0 0 3.162 3.16h23.116a3.17 3.17 0 0 0 3.16-3.16V3.444A3.172 3.172 0 0 0 26.557.281zM9.926 2.467h10.141v2.621H9.926V2.467zM26.984 26.69H3.013V7.592h23.969V26.69h.002z" fill="#fefefe"/></svg>