<svg xmlns="http://www.w3.org/2000/svg" viewBox="0 0 200 200"><path d="M190.3 91.3h-13.4c-4.1-35.9-32.4-64.2-68.3-68.3V9.7c0-4.8-3.9-8.7-8.7-8.7-4.8 0-8.7 3.9-8.7 8.7v13.4C55.3 27.2 27.1 55.5 23 91.4H9.7C4.9 91.4 1 95.2 1 100s3.9 8.7 8.7 8.7h13.4c4.1 35.9 32.4 64.1 68.3 68.2v13.4c0 4.8 3.9 8.7 8.7 8.7 4.8 0 8.7-3.9 8.7-8.7v-13.4c35.9-4.1 64.1-32.4 68.2-68.3h13.4c4.8 0 8.7-3.9 8.7-8.7-.1-4.7-4-8.6-8.8-8.6zm-43.1 17.4h12.2c-3.9 26.2-24.5 46.9-50.7 50.7v-12.2c0-4.8-3.9-8.7-8.7-8.7-4.8 0-8.7 3.9-8.7 8.7v12.2c-26.2-3.9-46.9-24.5-50.7-50.7h12.2c4.8 0 8.7-3.9 8.7-8.7 0-4.8-3.9-8.7-8.7-8.7H40.6c3.9-26.2 24.5-46.9 50.7-50.7v12.2c0 4.8 3.9 8.7 8.7 8.7 4.8 0 8.7-3.9 8.7-8.7V40.6c26.2 3.9 46.9 24.5 50.7 50.7h-12.2c-4.8 0-8.7 3.9-8.7 8.7 0 4.8 3.9 8.7 8.7 8.7zM100 78.3c-12 0-21.7 9.7-21.7 21.7s9.7 21.7 21.7 21.7 21.7-9.7 21.7-21.7S112 78.3 100 78.3z" fill="#b10c20"/></svg>