<svg xmlns="http://www.w3.org/2000/svg" width="45.97" height="18" viewBox="0 0 45.97 18"><defs><style>.cls-1{fill:#fefefe;fill-rule:evenodd}</style></defs><path id="W_Club_Vector" data-name="W Club Vector" class="cls-1" d="M1001.65 38.375l5.89 15.463 5.85-15.463h1.55L1008.27 56h-1.46l-5.83-15.4-5.857 15.4H993.7L987 38.373h1.545l5.856 15.463 5.886-15.463h1.37zm25.96 7.079a4.563 4.563 0 0 1 .66-.047 4.662 4.662 0 1 1-3.43 7.85 16.425 16.425 0 0 0 1.62 2.762h-5.32a23.207 23.207 0 0 0 1.69-2.9 4.677 4.677 0 1 1-3.51-7.73 4.877 4.877 0 0 1 .72.052 4.69 4.69 0 1 1 8.5-2.762 4.561 4.561 0 0 1-.93 2.776z" transform="translate(-987 -38.031)"/></svg>