<svg xmlns="http://www.w3.org/2000/svg" width="42.98" height="42.54" viewBox="0 0 42.98 42.54"><style>.st0{fill:#fff}</style><path class="st0" d="M41.76 12.76l-1.92-1.92c-.74-.74-1.92-.89-2.96-.44-1.18.59-2.66.3-3.7-.59-1.04-1.04-1.18-2.37-.59-3.7.44-1.04.3-2.22-.44-2.96l-1.92-1.92c-1.63-1.63-3.99-1.63-5.62 0L1.22 24.3c-1.63 1.63-1.63 3.99 0 5.62l1.63 1.48c.89.89 2.07 1.04 3.11.3 1.18-.74 2.81-.59 3.99.44 1.04 1.04 1.18 2.66.44 3.85-.59 1.04-.44 2.22.3 3.11l2.22 2.22c1.63 1.63 3.99 1.63 5.62 0l23.23-23.08c1.63-1.48 1.63-3.85 0-5.48zm-2.37 3.26l-5.03 4.88-1.33-1.33-2.37 2.37 1.33 1.33L16.16 39.1c-.3.3-.74.3-1.04 0l-1.78-1.78c1.18-2.52.74-5.47-1.33-7.4-1.92-1.92-5.03-2.52-7.4-1.18l-1.18-1.18c-.3-.3-.3-.74 0-1.04l15.98-15.83 1.33 1.33 2.37-2.37-1.33-1.33 5.03-4.88c.3-.3.74-.3 1.04 0l1.63 1.63c-.89 2.37-.44 5.03 1.48 6.95 1.92 1.78 4.59 2.37 6.95 1.48l1.63 1.63c.15.29.15.59-.15.89zm-13.02-3.11l-2.81-2.81-2.37 2.37L24 15.28l2.37-2.37zm.45.44l-2.37 2.37 2.81 2.81 2.37-2.37-2.81-2.81zm.74 5.48l2.81 2.81 2.37-2.37-2.81-2.81-2.37 2.37zm-9.03-1.19c-.59-.59-1.63-.59-2.37 0-.59.59-.59 1.63 0 2.37l6.66 6.66c.59.59 1.63.59 2.37 0 .59-.59.59-1.63 0-2.37l-6.66-6.66zm-3.25 3.41c-.59-.59-1.63-.59-2.37 0-.59.59-.59 1.63 0 2.37l6.66 6.66c.59.59 1.63.59 2.37 0 .59-.59.59-1.63 0-2.37l-6.66-6.66z"/></svg>