<svg xmlns="http://www.w3.org/2000/svg" width="530" height="60" viewBox="0 0 530 60"><defs><style>.cls-1{fill:#8f0919;fill-rule:evenodd}</style></defs><path id="Rectangle_31_copy" data-name="Rectangle 31 copy" class="cls-1" d="M849.313 638.813H946v1.218h-96.687v-1.218zm0 4.906H946v1.218h-96.687v-1.218zm0 4.906H946v1.219h-96.687v-1.219zM416 638.813h96.687v1.218H416v-1.218zm0 4.906h96.687v1.218H416v-1.218zm0 4.906h96.687v1.219H416v-1.219zm107.4 4.813h10.423v-1.7h-8.457v-16.109H523.4v17.809zm13.922 0h1.966v-17.809h-1.966v17.809zm12.361 0h1.454l6.895-17.809h-1.966l-4.5 11.667c-.4 1-.781 2.182-1.077 3.125-.323-.943-.727-2.182-1.1-3.152l-4.471-11.64h-2.155zm11.821 0h10.88v-1.751h-8.914v-6.358h7.33v-1.752h-7.325v-6.2h8.753v-1.752h-10.723v17.809zm19.038 0h2.047l2.155-5.6h6.679l2.127 5.6h2.236l-6.841-17.809h-1.454zm6.518-11.558c.4-1.051.781-2.209 1.077-3.152.3 1 .7 2.236 1.05 3.152l1.616 4.311h-5.413zm8.32-4.5h6.329v16.057h1.939v-16.056h6.329v-1.752h-14.6v1.752zm273.147 27.175c-.23-.006-.453-.01-.672-.01a5.78 5.78 0 0 1-2.361 4.965 16.21 16.21 0 0 1-9.392 2.771 18.963 18.963 0 0 1-7.024-1.493 89.708 89.708 0 0 1-11.141-5.332 91.545 91.545 0 0 1-10.118-6.376 78.33 78.33 0 0 1-8.978-7.423c1.747-1.03 3.659-1.754 5.4-2.8a6.011 6.011 0 0 0 2.417-3.5 1.013 1.013 0 0 0-1.262-1.122 10.279 10.279 0 0 0-4.622 2.339c1.026-1.773 2.124-3.5 3.193-5.247a124.262 124.262 0 0 1 7.475-11.177 45.564 45.564 0 0 1 7.089-7.527 10.715 10.715 0 0 1 5.7-2.539 8.533 8.533 0 0 1 4.585.8 1.517 1.517 0 0 1 .606 1.086c.229-.034.463-.074.7-.117.22-1.755-1.312-3.317-2.959-3.726a8.091 8.091 0 0 0-4.958.67 17.254 17.254 0 0 0-3.991 2.7 72.546 72.546 0 0 0-8.083 8.371 102.894 102.894 0 0 0-6.826 9c-2.428 3.613-4.779 7.272-7.116 10.944a7.066 7.066 0 0 1-1.292 1.737 23.465 23.465 0 0 1-5.739 3.623 9.241 9.241 0 0 1-4.259 1.011 2.021 2.021 0 0 1-2.1-1.174c-.264-1 .309-1.937.628-2.854a39.812 39.812 0 0 0 4.8-2.132 12.61 12.61 0 0 0 3.749-2.764 2.5 2.5 0 0 0 .561-2.36 1.747 1.747 0 0 0-1.888-.645 11.1 11.1 0 0 0-3.764 1.431 16.257 16.257 0 0 0-6.012 6.364 1.872 1.872 0 0 1-.592.628 24.605 24.605 0 0 1-4.678 2.64 8.653 8.653 0 0 1-3.811.868 2.17 2.17 0 0 1-2.089-.9c-.54-1.048.191-2.128.5-3.129a32.526 32.526 0 0 0 6.779-3.318 5.091 5.091 0 0 0 2.432-2.951 1.387 1.387 0 0 0-.7-1.562 4.762 4.762 0 0 0-2.74.3 13.984 13.984 0 0 0-5.417 3.536 13.419 13.419 0 0 0-3.356 4.945 4.109 4.109 0 0 0-.176 2.967 2.606 2.606 0 0 0 2.138 1.487 10.8 10.8 0 0 0 4.47-.494 25.351 25.351 0 0 0 6.5-3.256 3.979 3.979 0 0 0 .283 2.595 2.958 2.958 0 0 0 2.642 1.2 13.948 13.948 0 0 0 6.649-1.678 43.3 43.3 0 0 0 4.127-2.378 27.361 27.361 0 0 0-1.819 3.093c-.221.574.57.7.963.52a4.116 4.116 0 0 0 1.939-1.54c.786-1.189 1.5-2.418 2.216-3.653a17.281 17.281 0 0 0 2.076 2.287 104.83 104.83 0 0 0 9.748 8.548 58.1 58.1 0 0 0 9.1 5.953 46.144 46.144 0 0 0 11.534 4.423 23.3 23.3 0 0 0 10.207-.2 17.3 17.3 0 0 0 8.271-4.37c1.131-1.04.946-2.754.459-4.054zm-60.466-18.3a2.306 2.306 0 0 1 1.534-.586c.545.232.381.941.319 1.4-.5 1.251-1.769 1.953-2.879 2.612a18.575 18.575 0 0 1-3.015 1.291 14.481 14.481 0 0 1 4.042-4.715zm-12.908-.2a2.163 2.163 0 0 1 1.421-.391 2.022 2.022 0 0 1-.549 2.442 13.964 13.964 0 0 1-5.2 2.878 13.762 13.762 0 0 1 4.329-4.93zm28.873-.282c.215 1.2-.727 2.214-1.632 2.881a25.39 25.39 0 0 1-4.29 2.162c1.582-2.042 3.437-4.091 5.923-5.044zm-129.5-1.752a4.473 4.473 0 0 0-1.34 1.441c-.327.695.68.937.8 1.534a3.282 3.282 0 0 1-1.315 2.782c-1.744 1.53-3.938 2.447-5.7 3.954 0-2.541 1.378-4.782 2.351-7.059a8.632 8.632 0 0 1 1.5-2.172.939.939 0 0 0-.893-.246 4.553 4.553 0 0 0-2.285 1.17 21.974 21.974 0 0 0-2.23 4.881 22.114 22.114 0 0 1-3 3.085c-2.115 1.774-4.37 3.644-7.155 4.24a1.649 1.649 0 0 1-2.111-1.074 7.79 7.79 0 0 1 1.032-4.224c.966-1.974 1.917-3.965 3.031-5.863a19.9 19.9 0 0 1 1.9-.768 42.407 42.407 0 0 0 16.238-11.021 11.71 11.71 0 0 0 2.206-9.69 4.408 4.408 0 0 0-1.33-2.682 2.8 2.8 0 0 0-2.123.663 24.227 24.227 0 0 0-4.714 3.631 98.615 98.615 0 0 0-14.157 18.724c-.42.83-1.569.574-2.118 1.231a6.29 6.29 0 0 0 .649 1.04 10.73 10.73 0 0 1-2.846 3.752 24.137 24.137 0 0 1-6.849 4.959 3.637 3.637 0 0 1-2.187.446c-.747-.426-.5-1.429-.29-2.094a29.849 29.849 0 0 1 4.517-7.849c.385-.556 1.075-1.066.924-1.821-.06-.543-.264-1.363-.965-1.328-.919.391-1.253 1.412-1.759 2.186-1.653 2.565-3.324 5.127-4.761 7.821a6.879 6.879 0 0 0-1.02 2.982 1.7 1.7 0 0 0 .366 1.417c.779.747 1.983.465 2.911.189a25.962 25.962 0 0 0 10-6.624 11.9 11.9 0 0 0-1.341 5.225 2.32 2.32 0 0 0 1.29 2.036 5.365 5.365 0 0 0 3.764-.2c3.7-1.237 6.654-3.875 9.41-6.5a23.177 23.177 0 0 1-1.288 4.416c-.156.364-.326 1.011.215 1.138a15.8 15.8 0 0 0 2.017-.953 7.3 7.3 0 0 0 1.634-1.818c1.663-1.848 4-2.887 5.855-4.515a6.829 6.829 0 0 0 2.63-3.68 2.686 2.686 0 0 0-1.466-2.763zm-9.382-10.309a54.723 54.723 0 0 1 6-7.4 8.582 8.582 0 0 1 2.637-1.921.87.87 0 0 1 1.071.508 8.654 8.654 0 0 1 .291 8 14.231 14.231 0 0 1-3.189 3.883 41.348 41.348 0 0 1-13.939 8.321c2.174-3.914 4.585-7.703 7.126-11.392zm-28.676-1.439q3.762-2.5 7.323-5.275a7.277 7.277 0 0 0 1.491-1.435 1.663 1.663 0 0 0-1.464-2.063 5.375 5.375 0 0 0-3.13.85 13.8 13.8 0 0 0-6.344 7.869c-.1.7-.84.933-1.341 1.3-3.738 2.436-7.561 4.743-11.237 7.268-3.125 2.11-6.162 4.343-9.162 6.622a9.724 9.724 0 0 1 2.1-6.32 1.18 1.18 0 0 0 .276-1.08.925.925 0 0 0-.917.262c-1.3 1.856-2.249 3.924-3.5 5.808a6.332 6.332 0 0 0-.469 3.335 61.041 61.041 0 0 0-10.909 10.265 26.6 26.6 0 0 0-4.418 7.961 11.449 11.449 0 0 0 .83 8.629 2.971 2.971 0 0 0 2.853 1.715c.03-.282.057-.564.079-.846a2.87 2.87 0 0 1-2.234-1.568c-.874-1.806-.346-3.865.187-5.689a38.115 38.115 0 0 1 5.5-10.061 59.432 59.432 0 0 1 8.241-9.161 10.293 10.293 0 0 0 3.047 6.009c1.9 1.828 4.657 2.378 7.215 2.612a16.02 16.02 0 0 0 10.121-2.535 14.878 14.878 0 0 0 5.527-7.309 19.091 19.091 0 0 0 .862-6.5c.105-3.562-.622-7.093-.53-10.664zm3.358-6.158a2.619 2.619 0 0 1 2.411-.33c.477.56-.146 1.183-.572 1.551-1.62 1.337-3.352 2.537-5.079 3.736a7.779 7.779 0 0 1 3.237-4.958zm-6.883 26.311a9.354 9.354 0 0 1-6.1 5.1c-2.843.818-6.1 1.156-8.782-.333-3.168-1.691-4.839-5.189-5.343-8.575q5.118-3.967 10.475-7.621c3.5-2.413 7.205-4.525 10.705-6.939-.013 1.287-.258 2.565-.164 3.857.188 1.811.078 3.639.278 5.45.061 3.035.229 6.217-1.072 9.06zm114.84-26.418a15.615 15.615 0 0 0-7.624.48 33.764 33.764 0 0 0-15.208 8.844c-3.441 3.331-6.263 7.559-6.9 12.353a12.3 12.3 0 0 0 2.426 9.892 12.089 12.089 0 0 0 7.846 3.953 23.961 23.961 0 0 0 17.227-5.13 18.8 18.8 0 0 0 5.47-6.936 3.467 3.467 0 0 0-.787-3.639c-.213-.01-.424-.018-.631-.024a6.228 6.228 0 0 1-.587 3.915 16.28 16.28 0 0 1-2.333 3.373 24.3 24.3 0 0 1-5.6 4.774 15.545 15.545 0 0 1-11.433 1.921 9.818 9.818 0 0 1-6.539-4.405 14.7 14.7 0 0 1-1.647-8.833 15.521 15.521 0 0 1 2.767-7.887 27.63 27.63 0 0 1 8.689-7.988 17.264 17.264 0 0 1 10.692-2.541 7.421 7.421 0 0 1 5.106 2.453c.68.908.491 2.085.424 3.135.21.061.421.123.639.184a13.775 13.775 0 0 1 1.5-3.88c.239-.39.759-.765.538-1.279a6.24 6.24 0 0 0-4.038-2.736zm-95.886 10.2a1.272 1.272 0 0 0-1.639-.24 2.291 2.291 0 0 0-1.182 2.793c1.474.886 3.336-1.068 2.818-2.555zm54.639 6.11a4.494 4.494 0 0 0-3.422.344 30.2 30.2 0 0 0-7.016 5.275c.3-.866.989-1.664.866-2.627a2.005 2.005 0 0 0-2.322.895c-.78 1.455-1.407 3-2.3 4.39a21.336 21.336 0 0 1-6.242 4.361 10.242 10.242 0 0 1-4.622 1.241 2.228 2.228 0 0 1-2.107-.876c-.471-.824-.043-1.755.254-2.559a.934.934 0 0 1 .477-.68 39.006 39.006 0 0 0 5.312-2.462 10.518 10.518 0 0 0 3.146-2.535 2.5 2.5 0 0 0 .391-2.216c-.42-.742-1.409-.677-2.14-.565a13.894 13.894 0 0 0-6.895 4.145 12.3 12.3 0 0 0-3.375 5.77 2.731 2.731 0 0 0 .87 2.8c1.112.81 2.581.59 3.873.52 3.594-.6 6.791-2.493 9.715-4.549a19.141 19.141 0 0 0-1.184 2.167c-.293.868.406 1.608.879 2.259a1.273 1.273 0 0 0 1.009-.6c1.18-1.989 2.261-4.038 3.6-5.932a15.767 15.767 0 0 1 5.861-5.5 5.555 5.555 0 0 1 4.339-.486c.723.357.571 1.253.659 1.91h.525c.325-.743.735-1.449 1.083-2.182a1.832 1.832 0 0 0-1.237-2.31zm-21.7 3.721a1.362 1.362 0 1 1 .661 2.251 14.677 14.677 0 0 1-5.025 2.695 13.81 13.81 0 0 1 4.358-4.948zm84.121-1.1a1.61 1.61 0 0 1 .514 1.707c.135.06.407.181.543.244.428-.844.919-1.665 1.267-2.547.193-1.292-1.153-2.211-2.336-2.259a7.959 7.959 0 0 0-4.068 1.5 31.73 31.73 0 0 0-5.4 4.443c.3-.767.711-1.489.959-2.275a.849.849 0 0 0-1.217-.471 2.591 2.591 0 0 0-1.487 1.519c-1.267 2.765-2.865 5.36-4.362 8.006-.483.9.1 1.828.629 2.553a.971.971 0 0 0 .971-.33c1.8-2.958 3.36-6.11 5.73-8.687a13.549 13.549 0 0 1 4.519-3.238 5.067 5.067 0 0 1 3.732-.171z" transform="translate(-416 -618)"/></svg>